<svg version="1.2" xmlns="http://www.w3.org/2000/svg" viewBox="0 0 918 901" width="918" height="901"><style>.a{fill:#e0e0e0}.b{fill:#fafafa}.c{fill:#fff}.d{fill:#ebebeb}.e{fill:#f5f5f5}.f{fill:#cd2c22}.g{fill:#263238}.h{fill:#ffbe9d}.i{fill:#ff725e}.j{fill:#455a64}.k{fill:#1c6f4b}.l{fill:#eb996e}.m{fill:none}</style><path class="a" d="m711.5 658.6c-10.5-6.6-22.6-10.8-34.9-12-5.7-0.6-11.9-0.4-16.5 3-1 0.7-1.9 1.8-1.7 3 0.1 0.9 0.9 1.5 1.6 2.1 14.2 10.8 35.7 12.2 51.5 3.9z"/><path class="a" d="m710.6 657.6c-7.9-6.2-15.8-12.4-22.5-19.8-6.7-7.5-12.2-16.3-14.2-26.2-0.6-2.9-0.8-6.4 1.1-8.7 18 14 32.1 32.2 35.6 54.7z"/><path class="a" d="m711.3 658.5c-1.3-9.9-1.8-20 0.4-29.6 2.3-9.7 7.5-19 15.8-24.5 3.1 7.3 1.8 15.7-0.4 23.2-3.4 11.8-8.7 22.9-15.7 32.9"/><path class="a" d="m728.9 690c-10.7 1.3-20 6.9-28 14.2-7.9 7.2-13.6 16.9-16 27.5 10.5-0.7 19.4-8.1 25.9-16.4 6.4-8.3 10.9-17.4 18-25.1"/><path class="a" d="m732.7 695.1c-8.6-21.3-5.4-46.8 8-65.3 6.1 21.6 3.9 46.1-8 65.3z"/><path class="a" d="m756 722.8c-9.7-0.6-19.5 1.7-28 6.5-8.4 4.9-15.4 12.3-19.7 20.9-0.6 1.2-1.1 2.7-0.3 3.8 0.7 0.9 2 1 3.1 0.9 9.4-0.6 17.8-6.2 24.7-12.7 6.8-6.4 12.8-13.9 20.4-19.5"/><path class="a" d="m755.3 721.3c-5-16.1-5.3-33.5-0.9-49.7 1.7-6.4 4.7-13.1 10.6-16.1 0.5-0.3 1.1-0.5 1.6-0.3 0.5 0.2 0.8 0.7 1 1.2 2.1 4.4 2.8 9.4 2.5 14.2-0.2 4.9-1.2 9.7-2.2 14.5-1.9 8.8-2.9 18.2-7.7 25.8-1.1 1.9-2.1 3.8-3.1 5.7-0.9 2-0.9 2.6-1.7 4.2"/><path class="a" d="m816.9 730.4c-4.6-17.3 0.3-38.4 11.2-52.6 0.8-1 1.9-2.2 3.2-2 2 0.1 2.5 2.8 2.4 4.8-0.7 17.8-6.7 35.3-16.8 49.8z"/><path class="a" d="m822.4 734.2c21.1 5.5 45.3 0.2 62.9-12.7-10.4-5.3-22.7-6.8-34-4.2-11.4 2.6-21.8 7.7-28.9 16.9z"/><path class="a" d="m827.1 722.7c11.8-19.3 34.5-31.9 57-33-2.6 9.2-10.1 16.3-18.6 20.6-8.5 4.3-18 6.2-27.4 8-3.6 0.7-8.6 1.5-11 4.4z"/><path class="a" d="m818.1 666.6c3.2-11 6.4-22 7.3-33.4 0.8-11.4-0.8-23.3-6.7-33-11 21.3-12.2 46.3-1 67.5"/><path class="a" d="m855.2 647.8c12.9-23.4 39.2-42.2 65.9-44.8-10.3 25.6-38.3 45.4-65.9 44.8z"/><path class="a" d="m847.1 652.4c19.2 2.9 35.6 15.2 53.6 22.7 3.9 1.6 8 2.8 12.1 2.3 4.2-0.5 8.2-3.3 9.2-7.4 0.7-3.3-0.8-6.9-3.2-9.4-2.4-2.5-5.6-4-8.8-5.3-19.6-8.2-40.6-8.4-61.3-3.4"/><path class="a" d="m836 665.9c4.3 1.2 5.8 3.5 9.3 6.4 11.7 10 25.7 17.2 40.6 20.9 1.6 0.4 3.6 0.6 4.4-0.8 0.6-1.3-0.2-2.7-1.1-3.8-6.2-7.9-15.1-13.2-24.5-16.7-9.4-3.5-17.5-7.7-28.7-6.8"/><path class="a" d="m823.4 584.4c15.6 14.6 37.7 22.1 59 20.1 1-0.1 2-0.3 2.7-1 1.5-1.6-0.3-4.1-2.1-5.5-17.3-13.5-38.3-19.1-59.6-13.6z"/><path class="a" d="m838.3 578.9c20.7-15.5 49-20.2 73.6-12.1-9.3 9.1-22.1 14-35.1 15.4-12.9 1.3-25.9-0.1-38.5-3.3z"/><path class="a" d="m832.4 541.5c-1.7-17.4-0.6-31-1.8-48.4-0.1-1.4-0.4-3.1-1.7-3.6-1.8-0.7-3.3 1.6-3.9 3.4-5.2 16-2.4 34.4 7.3 48.2"/><path class="a" d="m831.1 543.4c11.8-7.3 20.6-16.8 28.7-27.9 5.7-7.7 10.4-17 9.2-26.5-8-0.2-15.6 4.2-20.7 10.2-5.2 6.1-8.3 13.6-10.6 21.2-2.3 7.7-3.9 15.5-6.6 23z"/><path class="a" d="m859.3 535.5c25.8-9.5 49.8-23.6 70.6-41.6-8.4-3.4-18.1-1.3-26.5 2.1-19.3 7.7-35 20.9-44.5 39.4"/><path class="a" d="m839 552.8c13.1 1.5 26.3 2.4 39.2 0.2 12.7-2.1 24.8-7.1 36.6-12.1 1-0.4 2.1-0.9 2.5-1.9 0.5-1.1 0-2.4-0.9-3.1-0.8-0.8-2-1.2-3.1-1.5-12.9-3.6-26.8-1.9-39.5 2.4-12.7 4.2-23.2 9.3-34.8 16z"/><path class="a" d="m764.6 585c-8.8-18-8.3-38.9-0.6-57.4 5.4 8.2 6.1 18.7 5.1 28.5-1 9.8-4 19.9-4.2 29.8"/><path class="a" d="m729.1 567.1c-22.2-0.5-44.4 9-59.4 25.3 11 1.7 22.4-1.1 32.5-6 10.1-5 19.1-11.9 27.9-18.7"/><path class="a" d="m705.3 559.1c-10.9-0.9-21.4-2.3-31.8 0.9-10.4 3.2-19.9 10.5-24.2 20.6 10.2 1.1 20.5-1.4 29.8-5.7 9.3-4.2 17.7-10 26.2-15.8z"/><path class="a" d="m740.6 559.4c-9.8-6.4-19.8-12.9-31.2-15.5-11.3-2.7-24.5-0.7-32.5 7.9 9.3 5.4 20.4 6 31.1 6 10.7 0 23.8-0.1 33.8 3.4"/><path class="a" d="m740.7 560c-16.7-16.4-23.1-45.9-16.4-68.3 13.2 19.9 19.1 44.5 16.4 68.3z"/><path class="a" d="m786.6 513.5c3.1-7.3 5.3-15 8.2-22.5 2.8-7.4 6.3-14.8 11.6-20.7 5.4-5.9 12.8-10.3 20.7-10.7-5 22.6-19.9 42.7-40.1 54"/><path class="a" d="m778.3 523.2c-5.2-7.2-11.3-16.9-18.3-22.3-7.1-5.3-16.3-8.6-24.9-6.5 8.7 15.7 25.3 26.7 43.2 28.8z"/><path class="a" d="m779.9 514.1c-3.4-8.7-6.8-17.5-8.2-26.7-1.4-9.2-0.5-19.1 4.2-27.1 9.1 17.3 12.1 35.9 4.5 54"/><path class="a" d="m786.7 460.3c5.2-17.2 20.9-29.8 37.9-35.6 2.1-0.8 4.4-1.4 6.6-1 2.2 0.3 4.4 1.8 4.9 4 0.6 3-1.8 5.6-4.1 7.5-13.2 11.3-28.7 19.9-45.3 25.1z"/><path class="a" d="m786.9 446.2c0.6-11 1.3-22.3 4.9-32.8 3.6-10.5 10.6-20.3 20.7-24.9 1.7 11.2-3.3 22.3-9.2 31.9-6 9.7-13.1 18.8-16.7 29.5"/><path class="a" d="m786.6 453.9c-4.3-12.6-4.8-28.5-12.3-39.4-5.2-7.6-13.6-12.8-18.1-20.9-3 7.6-2.1 16.3 1.1 23.8 3.1 7.4 8.3 13.9 13.8 19.8 5.6 5.9 10.3 10.4 15.5 16.7z"/><path class="a" d="m786.7 822.5c-0.4 0-0.7-83.5-0.7-186.5 0-103 0.2-186.5 0.6-186.5 0.3 0 0.6 83.5 0.6 186.5 0 103-0.2 186.5-0.5 186.5z"/><path class="a" d="m859.6 572.4c0.1 0-1.1 0.5-3.1 1.1-2.3 0.8-5.2 1.8-8.6 3-7.3 2.4-17.3 6-28.2 10.5-10.8 4.6-20.9 8.4-26.7 13.4-2.9 2.4-4.5 5.1-5.3 7-0.9 2-1 3.2-1.1 3.2q-0.1 0 0-0.9c0.1-0.6 0.3-1.4 0.6-2.4 0.7-2.1 2.3-4.9 5.3-7.6 2.9-2.6 6.9-5 11.5-7.2 4.7-2.1 9.8-4.4 15.2-6.6 10.9-4.5 21-8 28.4-10.2 3.7-1.2 6.7-2 8.8-2.6 2.1-0.5 3.2-0.8 3.2-0.7z"/><path class="a" d="m883.6 513.6q0 0.1-0.9 1-1.1 0.9-2.7 2.5c-2.5 2.2-5.9 5.3-10 9.1-8.6 7.6-20.4 18.1-33.3 29.6-13 11.6-24.2 22.6-32 31-3.9 4.1-7 7.6-9.1 10q-1.4 1.6-2.4 2.7-0.8 1-0.9 0.9 0 0 0.7-1c0.5-0.7 1.3-1.7 2.3-2.9 2-2.5 4.9-6.1 8.8-10.3 7.6-8.5 18.8-19.7 31.8-31.3 13-11.5 24.9-21.9 33.5-29.4 4.3-3.6 7.7-6.6 10.3-8.8q1.7-1.4 2.8-2.3 1-0.8 1.1-0.8z"/><path class="a" d="m822.7 567.6c-0.4-0.2 2.3-6.5 5.1-14.4 2.7-7.9 4-14.6 4.3-14.5 0.3 0-0.4 6.9-3.2 14.9-1.4 4-2.9 7.5-4 10-1.2 2.5-2.1 4-2.2 4z"/><path class="a" d="m786.7 618.1c0 0.1-0.7-0.8-2-2.3q-2-2.6-5.1-6.6c-4.3-5.6-10.3-13.3-16.9-21.7-6.7-8.4-12.9-15.9-17.3-21.4q-3.2-3.9-5.3-6.5c-1.2-1.5-1.8-2.4-1.8-2.5 0.1 0 0.9 0.8 2.2 2.2 1.3 1.5 3.2 3.6 5.5 6.3 4.7 5.3 10.9 12.8 17.6 21.2 6.7 8.4 12.5 16.2 16.7 21.9 2.1 2.9 3.7 5.2 4.8 6.8 1.1 1.6 1.7 2.6 1.6 2.6z"/><path class="a" d="m770.7 597.6c-0.2 0.2-4.4-4.9-6.7-12.6-1.6-5.4-1.7-10.4-1.5-12.6h0.5c-0.2 1-0.4 1.5-0.5 1.5-0.1 0-0.1-0.6 0-1.6l0.6 0.1c0.1 2.2 0.5 7 2.1 12.3 2.2 7.4 5.9 12.7 5.5 12.9z"/><path class="a" d="m750.1 571.6c-0.2 0.2-1.5-1.6-4.7-2.7-3.1-1.2-7.8-1.5-13-1.1-5.2 0.4-9.8 1.3-13.1 2.1-3.3 0.9-5.3 1.5-5.4 1.3 0-0.1 1.9-1 5.2-2.1 3.3-1 8-2.1 13.2-2.5 5.2-0.4 10.2 0 13.4 1.5 3.3 1.4 4.5 3.5 4.4 3.5z"/><path class="a" d="m745.2 565.3c-0.1 0.2-2.7-1.1-7.2-2.6-4.4-1.5-10.7-3.2-17.9-3.7-7.1-0.5-13.6 0.1-18.2 0.9-4.6 0.8-7.4 1.7-7.5 1.5 0-0.1 0.6-0.3 1.9-0.8 1.2-0.5 3.1-1 5.4-1.5 4.6-1.1 11.2-1.9 18.5-1.3 7.3 0.6 13.7 2.3 18.1 4.1 2.2 0.8 4 1.7 5.1 2.3 1.2 0.6 1.8 1 1.8 1.1z"/><path class="a" d="m786.6 538.7c-0.3 0-2.7-8.1-5.2-18.2-2.6-10.1-4.4-18.4-4.1-18.5 0.3-0.1 2.7 8.1 5.2 18.2 2.6 10.1 4.4 18.4 4.1 18.5z"/><path class="a" d="m786.9 538.7c-0.3 0.1-1.9-5.4-5.8-10.9-3.8-5.7-8.7-8.5-8.5-8.8 0-0.2 1.4 0.3 3.3 1.7 1.9 1.3 4.2 3.5 6.2 6.4 4.1 5.8 5.1 11.5 4.8 11.6z"/><path class="a" d="m786.7 778c-0.2 0-0.4-2-1.4-5.5-0.9-3.6-2.6-8.6-5.5-14.5-5.8-11.8-16.3-26.7-29.6-41.7-6.7-7.6-13.1-14.7-18.5-21.5-5.5-6.8-9.9-13.3-13.2-19.1-3.3-5.7-5.4-10.6-6.7-14.1q-0.9-2.6-1.3-4-0.4-1.5-0.3-1.5c0.1 0 0.7 1.9 2.1 5.3 1.3 3.4 3.6 8.3 6.9 13.9 3.4 5.6 7.9 12 13.4 18.8 5.4 6.7 11.8 13.8 18.5 21.4 13.3 15 23.8 30.1 29.4 42.1 2.9 6 4.5 11.1 5.3 14.7q0.6 2.8 0.7 4.2 0.2 1.5 0.2 1.5z"/><path class="a" d="m852.6 703.5c0.1 0.1-1.2 0.7-3.4 2-2.3 1.2-5.4 3.1-9 5.9-3.6 2.7-7.6 6.4-11.8 10.7-4.1 4.4-8.4 9.5-12.7 14.9-8.7 10.9-16.8 20.5-21.7 28.2-2.5 3.9-4.3 7.1-5.4 9.3-1.2 2.3-1.8 3.5-1.9 3.5q-0.1 0 0.3-1c0.2-0.6 0.6-1.5 1.1-2.7 1.1-2.3 2.8-5.6 5.2-9.5 4.7-7.9 12.8-17.7 21.4-28.6 4.4-5.4 8.7-10.5 12.9-14.8 4.2-4.4 8.4-8 12.1-10.7 3.7-2.7 6.9-4.5 9.2-5.7 1.2-0.5 2.1-0.9 2.7-1.1q1-0.4 1-0.4z"/><path class="a" d="m853.9 727.7c0 0.2-2.8 0.5-7.3 1-4.5 0.6-10.8 1.4-17.3 3.5-6.6 2.1-12 5.3-15.5 8.1-3.6 2.8-5.3 5-5.5 4.9 0 0 0.3-0.6 1.1-1.7 0.8-1 2.1-2.4 3.8-3.9 3.5-3 9-6.4 15.7-8.6 6.7-2.1 13.1-2.7 17.6-3.1 4.6-0.3 7.4-0.4 7.4-0.2z"/><path class="a" d="m810.5 742.6c-0.4-0.3 2.9-5.3 5.4-12 2.4-6.9 3-12.9 3.4-12.8 0.2 0 0.2 1.5-0.1 3.9-0.3 2.4-0.9 5.8-2.1 9.3-1.3 3.5-3 6.4-4.3 8.4-1.3 2.1-2.2 3.2-2.3 3.2z"/><path class="a" d="m874 638.6q0 0.1-1.2 0.7-1.4 0.6-3.4 1.5c-1.5 0.7-3.4 1.5-5.4 2.6-2.1 1-4.5 2.1-7 3.6q-1.9 1.1-4 2.3c-1.4 0.8-2.7 1.7-4.2 2.7-2.9 1.7-5.9 3.9-9 6.2-6.2 4.6-12.6 10.2-18.8 16.5-6.2 6.5-11.5 13.1-16 19.4-2.1 3.3-4.2 6.3-5.9 9.3-0.8 1.5-1.7 2.8-2.5 4.3q-1.1 2.1-2.1 4c-1.4 2.6-2.4 5-3.4 7.1-1 2.1-1.8 4-2.4 5.5q-0.9 2.1-1.4 3.5-0.5 1.2-0.6 1.2-0.1-0.1 0.3-1.3 0.5-1.4 1.3-3.6c0.5-1.5 1.2-3.4 2.2-5.6 0.9-2.1 1.9-4.6 3.2-7.2q1-1.9 2.1-4.1c0.7-1.4 1.6-2.8 2.5-4.3 1.6-3.1 3.7-6.1 5.8-9.4 4.5-6.4 9.8-13.1 16-19.6 6.3-6.4 12.8-12 19-16.6 3.2-2.2 6.2-4.4 9.2-6.2 1.5-0.9 2.8-1.8 4.2-2.6q2.2-1.1 4.1-2.2c2.5-1.5 5-2.5 7.1-3.5 2.1-1.1 3.9-1.8 5.5-2.4q2.1-0.8 3.5-1.4 1.2-0.4 1.3-0.4z"/><path class="a" d="m821.8 673.6c-0.1 0 0.5-2 2.8-4.3 2.4-2.2 6.6-4.2 11.6-4.4 5-0.1 9.2 1.3 12.2 2.4 2.9 1.1 4.6 2.1 4.6 2.2-0.1 0.2-1.9-0.5-4.9-1.4-3-0.9-7.2-2.1-11.9-2-4.6 0.2-8.7 2-11 3.9-2.4 1.9-3.2 3.7-3.4 3.6z"/><path class="a" d="m814 681.7c-0.4-0.2 2.6-4.5 3.3-10.7 0.7-6.2-1.1-11.1-0.8-11.2 0.2 0 0.8 1.1 1.4 3.1 0.5 2.1 0.9 5 0.6 8.2-0.4 3.2-1.5 6-2.5 7.8-1 1.9-1.9 2.8-2 2.8z"/><path class="a" d="m729 790c1.8 31.9 11.4 64.3 26.2 97.2h64.3c14.1-32.5 23.1-64.9 24.7-97.2z"/><path class="b" d="m833.7 841.6c0 0.4-21.1 0.6-47.3 0.6-26.1 0-47.3-0.2-47.3-0.6 0-0.3 21.2-0.6 47.3-0.6 26.2 0 47.3 0.3 47.3 0.6z"/><path class="b" d="m832.3 853.2c0 0.3-19.8 0.6-44.3 0.6-24.5 0-44.4-0.3-44.4-0.6 0-0.4 19.9-0.6 44.4-0.6 24.5 0 44.3 0.2 44.3 0.6z"/><path class="b" d="m756.2 810.9c0.4 0 0.6 6.7 0.6 14.8 0 8.2-0.2 14.9-0.6 14.9-0.3 0-0.6-6.7-0.6-14.9 0-8.1 0.3-14.8 0.6-14.8z"/><path class="b" d="m790.7 810.9c0.3 0 0.6 6.9 0.6 15.4 0 8.4-0.3 15.3-0.6 15.3-0.3 0-0.6-6.9-0.6-15.3 0-8.5 0.3-15.4 0.6-15.4z"/><path class="b" d="m823.1 810.7c0.3 0 0.6 7 0.6 15.6 0 8.7-0.3 15.7-0.6 15.7-0.4 0-0.6-7-0.6-15.7 0-8.6 0.2-15.6 0.6-15.6z"/><path class="b" d="m842.1 810.9c0 0.4-24.8 0.6-55.4 0.6-30.7 0-55.5-0.2-55.5-0.6 0-0.3 24.8-0.6 55.5-0.6 30.6 0 55.4 0.3 55.4 0.6z"/><path class="a" d="m877.1 167.5h-154.1v-160.7h154.1z"/><path class="b" d="m866.7 167.5h-154.1v-160.7h154.1z"/><path fill-rule="evenodd" class="a" d="m866.7 167.5h-154.2v-160.7h154.2zm-154.1-0.1h154v-160.6h-154z"/><path class="c" d="m846 145.9h-112.7v-117.5h112.7z"/><path class="a" d="m733.3 146.7c0.1 0.1-1 1.3-2.8 3.2-1.8 1.9-4.3 4.5-7.2 7.3-2.8 2.8-5.4 5.2-7.3 7-1.9 1.8-3.2 2.8-3.3 2.7-0.1-0.1 1-1.3 2.8-3.2 1.8-1.9 4.3-4.5 7.2-7.3 2.8-2.8 5.4-5.3 7.3-7 2-1.8 3.2-2.8 3.3-2.7z"/><path class="a" d="m846 146.4c0.1-0.1 1.3 1 3.2 2.8 1.9 1.8 4.5 4.3 7.3 7.1 2.8 2.9 5.2 5.5 7 7.4 1.8 1.9 2.8 3.1 2.7 3.2-0.1 0.1-1.3-0.9-3.2-2.7-1.9-1.8-4.5-4.4-7.3-7.2-2.8-2.8-5.3-5.5-7-7.4-1.8-1.9-2.8-3.1-2.7-3.2z"/><path class="a" d="m845.7 28.7c-0.1-0.1 0.9-1.3 2.7-3.2 1.8-1.9 4.4-4.5 7.2-7.3 2.8-2.8 5.4-5.2 7.4-7 1.9-1.8 3.1-2.8 3.2-2.7 0.1 0.1-0.9 1.3-2.7 3.2-1.8 1.9-4.4 4.5-7.2 7.3-2.9 2.8-5.5 5.3-7.4 7-1.9 1.8-3.2 2.8-3.2 2.7z"/><path class="a" d="m733 29c-0.1 0.1-1.4-1-3.3-2.8-1.9-1.8-4.4-4.3-7.2-7.1-2.8-2.9-5.3-5.5-7.1-7.4-1.7-1.9-2.8-3.1-2.7-3.2 0.1-0.1 1.3 0.9 3.2 2.7 1.9 1.8 4.5 4.4 7.3 7.2 2.8 2.8 5.3 5.5 7.1 7.4 1.7 1.9 2.8 3.1 2.7 3.2z"/><path class="a" d="m845.7 145.9q-0.1 0-0.1-0.6 0-0.6 0-1.6 0-2.2 0-6.4c-0.1-5.5-0.1-13.6-0.2-23.9 0-20.6-0.1-49.9-0.2-85l0.5 0.5c-32.8 0-71.4 0-112.4 0l0.5-0.5c0 43.1-0.1 83.5-0.1 117.5l-0.4-0.4c33.7 0.1 61.7 0.1 81.4 0.2 9.8 0 17.5 0.1 22.8 0.1q3.9 0 6.1 0 0.9 0.1 1.5 0.1 0.5 0 0.6 0 0 0-0.5 0-0.6 0-1.6 0-2 0.1-5.9 0.1c-5.3 0-13 0.1-22.8 0.1-19.7 0.1-47.8 0.1-81.6 0.2h-0.4v-0.4c-0.1-34-0.1-74.4-0.1-117.5v-0.5h0.5c41 0 79.6 0.1 112.4 0.1h0.4v0.4c-0.1 35.2-0.2 64.6-0.2 85.3-0.1 10.2-0.1 18.3-0.1 23.8q-0.1 4.1-0.1 6.3 0 1 0 1.6 0 0.5 0 0.5z"/><path class="d" d="m808.4 106h-37.6v-37.6h37.6z"/><path class="a" d="m205.6 515.8h-176.1v-255.1h176.1z"/><path class="e" d="m196.7 515.8h-176v-255.1h176z"/><path class="c" d="m174.9 488.1h-132.3v-199.8h132.3z"/><path class="a" d="m174.9 488.1q0 0-0.1-0.9 0-1 0-2.9c0-2.5 0-6.2 0-10.9-0.1-9.6-0.1-23.6-0.2-41.2 0-35.2-0.1-85.1-0.2-143.9l0.5 0.4c-40.4 0-85.2 0.1-132.3 0.1l0.5-0.5c-0.1 75.4-0.1 144.9-0.1 199.8l-0.4-0.3c40.3 0 73.3 0.1 96.3 0.2 11.5 0 20.4 0 26.6 0.1q4.5 0 7 0c1.5 0 2.4 0 2.4 0q0 0-2.4 0.1-2.3 0-6.9 0c-6.1 0-15 0.1-26.5 0.1-23 0.1-56.1 0.1-96.5 0.2h-0.4v-0.4c0-54.9 0-124.4-0.1-199.8v-0.5h0.5c47.1 0 91.9 0 132.3 0h0.4v0.5c-0.1 58.9-0.2 108.9-0.2 144.2-0.1 17.6-0.1 31.5-0.1 41.1-0.1 4.7-0.1 8.3-0.1 10.8q0 1.8 0 2.8 0 0.9 0 0.9z"/><path class="a" d="m197.2 260.7c0.1 0-1.1 1.8-3.1 4.5-2.1 2.7-5 6.5-8.3 10.5-3.3 4-6.4 7.6-8.7 10.1-2.3 2.5-3.7 4-3.8 4-0.1-0.1 1.2-1.8 3.3-4.4 2.4-2.9 5.3-6.4 8.5-10.3 3.2-3.9 6.1-7.4 8.5-10.3 2.1-2.6 3.5-4.2 3.6-4.1z"/><path class="c" d="m175.5 487.5c6.6 10.4 14.4 20.1 23.1 28.8"/><path class="a" d="m198.6 516.3c-0.1 0.1-1.6-1.2-4-3.6-2.4-2.4-5.5-5.8-8.7-9.8-3.2-4-5.9-7.8-7.7-10.7-1.8-2.8-2.8-4.6-2.7-4.7 0.2-0.1 1.3 1.6 3.3 4.3 1.9 2.8 4.7 6.5 7.8 10.5 3.2 4 6.3 7.4 8.5 9.9 2.2 2.5 3.6 4 3.5 4.1z"/><path class="c" d="m20.7 515.6q11.5-14.3 23.1-28.5"/><path class="a" d="m43.8 487.1c0.2 0.2-4.8 6.7-11.2 14.5-6.4 7.9-11.7 14.1-11.9 14-0.2-0.2 4.8-6.7 11.2-14.6 6.3-7.8 11.7-14 11.9-13.9z"/><path class="a" d="m20.7 260.7c0.2-0.2 5.2 5.8 11.2 13.3 6 7.6 10.7 13.8 10.5 14-0.2 0.2-5.3-5.8-11.2-13.4-6-7.5-10.7-13.8-10.5-13.9z"/><path class="a" d="m133.7 454.6h-44.3v-125.7h44.3z"/><g style="display:none"><path class="d" d="m804.8 133.9l-4.4-7.3c-37.3-61.3-104.6-98.3-175.6-93.8-9.1 0.5-18.2 1.8-27.2 3.7-64.5 13.8-120.7 62.6-143.9 125.1-13.7 36.8-17.6 79.1-43.5 108.3-33.9 38-91.3 39.2-141.7 37.6-50.5-1.6-107.9-0.2-141.6 37.9-21.1 23.9-27.8 57.8-26.1 89.8 4.5 84.7 63.5 160.4 138.6 198 75 37.6 163.3 41 245.4 24.4 115.1-23.2 224.4-86.8 290.2-185.2 65.8-98.3 82.4-232.3 29.8-338.5z"/><path class="d" d="m71.8 360.9c0 18.4-14.9 33.2-33.3 33.2-18.4 0-33.3-14.8-33.3-33.2 0-18.4 14.9-33.3 33.3-33.3 18.4 0 33.3 14.9 33.3 33.3z"/><path class="d" d="m870.9 51.1c0 18.4-14.9 33.3-33.3 33.3-18.3 0-33.2-14.9-33.2-33.3 0-18.4 14.9-33.3 33.2-33.3 18.4 0 33.3 14.9 33.3 33.3z"/></g><path class="f" d="m112.7 84.3c-36.8 15.1-54.5 57.3-39.5 94.2l44.9 109.4 20.1-8.2-44.8-109.5c-10.6-25.7 1.8-55.2 27.5-65.8 25.8-10.5 55.3 1.8 65.9 27.6l20.1-8.2c-15.1-36.9-57.4-54.6-94.2-39.5z"/><g style="opacity:.3"><path  d="m112.7 84.3c-36.8 15.1-54.5 57.3-39.5 94.2l44.9 109.4 20.1-8.2-44.8-109.5c-10.6-25.7 1.8-55.2 27.5-65.8 25.8-10.5 55.3 1.8 65.9 27.6l20.1-8.2c-15.1-36.9-57.4-54.6-94.2-39.5z"/></g><path class="f" d="m291.5 294.9l-158.5 64.9c-6 2.5-12.8-0.4-15.2-6.3l-38.5-94c-2.4-6 0.4-12.7 6.4-15.2l158.5-64.9c5.9-2.4 12.7 0.4 15.2 6.4l38.5 94c2.4 5.9-0.5 12.7-6.4 15.1z"/><g style="opacity:.5"><path  d="m197.5 248.4c-3.4-8.3-12.9-12.3-21.2-8.9-8.4 3.4-12.3 12.9-8.9 21.2 2.8 6.9 9.8 10.8 16.8 10l9.2 22.5 8.2-3.4-9.2-22.5c5.6-4.4 7.9-12 5.1-18.9z"/></g><path class="b" d="m127.3 349.4c-0.4 0.1-8.6-19-18.3-42.8-9.8-23.7-17.3-43.1-16.9-43.3 0.4-0.2 8.6 19 18.3 42.7 9.8 23.8 17.3 43.2 16.9 43.4z"/><path class="b" d="m178.5 278.7c0 0.1-0.8 0-2.1-0.3-1.4-0.3-3.4-1-5.5-2.4-4.4-2.5-9.7-8.1-11-16-1.2-7.9 2.2-14.9 5.5-18.7 1.7-1.9 3.3-3.2 4.5-3.9 1.2-0.7 1.9-1 2-0.9 0.2 0.2-2.6 1.7-5.6 5.5-3 3.8-5.9 10.4-4.8 17.7 1.2 7.3 6 12.7 10 15.4 4 2.8 7.1 3.3 7 3.6z"/><path class="f" d="m50.9 298.4l1-2.8 1.8 2.3c1.5 1.9 3.5 3.3 5.8 4.1l2.8 1-2.3 1.8c-1.9 1.5-3.3 3.5-4.1 5.8l-1 2.8-1.8-2.3c-1.5-1.9-3.5-3.3-5.8-4.1l-2.8-1 2.3-1.8c1.9-1.5 3.3-3.5 4.1-5.8z"/><path class="f" d="m145.8 186.8l0.6-1.6 1 1.4c0.9 1 2.1 1.9 3.4 2.3l1.6 0.6-1.3 1.1c-1.1 0.8-1.9 2-2.4 3.3l-0.6 1.7-1-1.4c-0.9-1.1-2.1-1.9-3.4-2.4l-1.6-0.5 1.3-1.1c1.1-0.9 1.9-2 2.4-3.4z"/><path class="f" d="m31.7 200.7l1.6-4.7 3.1 3.9c2.5 3.2 5.9 5.6 9.7 6.9l4.8 1.6-4 3.1c-3.1 2.5-5.5 5.9-6.8 9.7l-1.7 4.8-3.1-4c-2.5-3.1-5.8-5.5-9.7-6.8l-4.7-1.7 3.9-3.1c3.2-2.5 5.6-5.9 6.9-9.7z"/><path class="g" d="m583.1 894.8l-295.2-0.2c-35.5 0-64.3-28.8-64.3-64.3l0.2-740.1c0-35.6 28.8-64.4 64.3-64.3l295.2 0.1c35.6 0 64.3 28.8 64.3 64.3l-0.1 740.2c0 35.5-28.8 64.3-64.4 64.3z"/><path class="c" d="m583 52.2h-57.2c-7.7 0-13.9 6.5-13.9 14.5v10.4c0 8-6.2 14.5-13.9 14.5l-111.6-0.1c-7.7 0-13.9-6.5-13.9-14.5v-10.4c0-8-6.2-14.5-13.9-14.5h-20.1l-50.1-0.1c-24.9 0-45.1 20.2-45.1 45.1l-0.1 722.4c0 24.9 20.1 45 45 45l294.6 0.2c24.9 0 45.1-20.1 45.1-45l0.1-722.4c0-24.9-20.1-45.1-45-45.1z"/><path class="g" d="m408.3 809.5c0 3.1-2.5 5.7-5.7 5.7-3.1 0-5.6-2.5-5.7-5.6 0-3.1 2.5-5.7 5.6-5.7 3.2 0 5.7 2.5 5.8 5.6z"/><path class="g" d="m439.9 809.2c0.1 3.2-2.4 5.7-5.6 5.7-3.1 0.1-5.6-2.4-5.7-5.6 0-3.1 2.5-5.6 5.6-5.7 3.2 0 5.7 2.5 5.7 5.6z"/><path class="g" d="m471.6 809c0.1 3.1-2.5 5.7-5.6 5.7-3.1 0-5.7-2.5-5.7-5.6 0-3.1 2.5-5.7 5.6-5.7 3.2-0.1 5.7 2.5 5.7 5.6z"/><path class="g" d="m584.8 125.2c0 0.1-7.5 0.3-16.7 0.4-9.2 0.1-16.6 0-16.6-0.2 0-0.1 7.4-0.3 16.6-0.4 9.2-0.1 16.6 0 16.7 0.2z"/><path class="g" d="m584.8 133.7c0 0.1-7.4 0.3-16.6 0.4-9.2 0.1-16.6 0-16.6-0.2 0-0.1 7.4-0.3 16.6-0.4 9.2-0.1 16.6 0 16.6 0.2z"/><path class="g" d="m584.9 142.2c0 0.1-7.5 0.3-16.6 0.4-9.2 0.1-16.7 0-16.7-0.2 0-0.1 7.5-0.3 16.7-0.4 9.1-0.1 16.6 0 16.6 0.2z"/><path class="g" d="m282.3 151.9q0 0 0.7-0.1 0.8 0 1.9 0 2.7-0.1 7.1-0.2l-0.2 0.2q0-2.4 0-5.1c0-1-0.1-1.9 0-3 0.2-1.1 1.1-2.1 2.3-2.2 1.2 0 2.2 0 3.4 0 1.3 0.2 2.4 1.4 2.3 2.7q0.1 3.6 0.1 7.5l-0.3-0.3q4.3 0 9 0l-0.3 0.3q-0.1-5.5-0.1-11.2-0.1-1.4-0.1-2.8 0-0.7-0.3-1.2c-0.2-0.3-0.6-0.6-0.9-1q-2-1.9-4-3.8-1.9-1.9-3.7-3.8-1-0.9-1.9-1.8c-0.6-0.6-1.1-1.2-1.8-1.4-0.7-0.2-1.5 0-2.1 0.4-0.6 0.5-1.1 1.1-1.7 1.7q-1.6 1.6-3.2 3.2c-2 2.1-4.1 4-5.7 5.9-0.6 1-0.4 2.2-0.4 3.3q0 1.7 0 3.2 0 2.9 0 5.1-0.1 1.9-0.1 3.2c0 0.8 0 1.2 0 1.2q0 0-0.1-1.1 0-1.3 0-3.2-0.1-2.2-0.1-5.1-0.1-1.5-0.1-3.2 0-0.9 0-1.8c0-0.6 0.1-1.3 0.5-1.9 1.6-2 3.6-3.8 5.6-5.9q1.6-1.6 3.2-3.3c0.6-0.6 1.1-1.1 1.7-1.7 0.8-0.6 1.7-0.8 2.6-0.5 1 0.2 1.6 1 2.1 1.5q1 0.9 1.9 1.8 1.8 1.8 3.8 3.7 1.9 1.9 3.9 3.9c0.3 0.3 0.7 0.6 1 1.1 0.3 0.4 0.4 0.9 0.5 1.4q0 1.5 0 2.9 0 5.7 0.1 11.2v0.3h-0.3q-4.7 0-9 0h-0.3v-0.3q0-3.9 0-7.5c0-1.1-0.8-2-1.9-2.2-1 0-2.2 0-3.2 0-1 0.1-1.8 0.9-2 1.8-0.1 0.9 0 1.9 0 2.8q0 2.8 0 5.2v0.2h-0.2q-4.5 0-7.2-0.1-1.1 0-1.9 0-0.6 0-0.6 0z"/><path fill-rule="evenodd" class="g" d="m357.9 323.4c0 6.9-5.2 11.3-13.5 11.3h-6.2v8.5h-7.2v-31.1h13.4c8.3 0 13.5 4.3 13.5 11.3zm-7.3 0c0-3.4-2.2-5.4-6.6-5.4h-5.8v10.8h5.8c4.4 0 6.6-2 6.6-5.4z"/><path fill-rule="evenodd" class="g" d="m383.5 329.6v13.6h-6.5v-3c-1.3 2.2-3.8 3.4-7.3 3.4-5.6 0-8.9-3.1-8.9-7.3 0-4.2 3-7.1 10.2-7.1h5.6c0-3-1.8-4.7-5.6-4.7-2.5 0-5.1 0.8-6.8 2.2l-2.5-4.8c2.6-1.9 6.5-2.9 10.3-2.9 7.3 0 11.5 3.3 11.5 10.6zm-6.9 6.1v-2.5h-4.8c-3.2 0-4.3 1.2-4.3 2.8 0 1.8 1.5 2.9 3.9 2.9 2.4 0 4.4-1 5.2-3.2z"/><path class="g" d="m387.4 341l2.4-5c2.1 1.4 5.3 2.3 8.3 2.3 3.2 0 4.4-0.8 4.4-2.1 0-3.9-14.5 0.1-14.5-9.5 0-4.5 4.1-7.7 11.1-7.7 3.3 0 6.9 0.7 9.2 2.1l-2.3 4.9c-2.4-1.3-4.7-1.8-6.9-1.8-3.1 0-4.5 1-4.5 2.2 0 4.1 14.5 0.2 14.5 9.6 0 4.4-4.2 7.6-11.3 7.6-4 0-8.1-1.1-10.4-2.6z"/><path class="g" d="m411 341l2.3-5c2.2 1.4 5.4 2.3 8.4 2.3 3.2 0 4.4-0.8 4.4-2.1 0-3.9-14.5 0.1-14.5-9.5 0-4.5 4.1-7.7 11.1-7.7 3.3 0 6.9 0.7 9.2 2.1l-2.3 4.9c-2.4-1.3-4.7-1.8-6.9-1.8-3.1 0-4.5 1-4.5 2.2 0 4.1 14.5 0.2 14.5 9.6 0 4.4-4.2 7.6-11.3 7.6-4.1 0-8.1-1.1-10.4-2.6z"/><path class="g" d="m474.9 319.3l-8.7 23.9h-6.6l-5.4-14.8-5.6 14.8h-6.6l-8.7-23.9h6.6l5.6 16.2 5.9-16.2h5.8l5.7 16.2 5.9-16.2z"/><path fill-rule="evenodd" class="g" d="m475.7 331.3c0-7.2 5.5-12.3 13.1-12.3 7.6 0 13.2 5.1 13.2 12.3 0 7.2-5.6 12.3-13.2 12.3-7.6 0-13.1-5.1-13.1-12.3zm19.2 0c0-4.2-2.6-6.6-6.1-6.6-3.4 0-6.1 2.4-6.1 6.6 0 4.1 2.7 6.6 6.1 6.6 3.5 0 6.1-2.5 6.1-6.6z"/><path class="g" d="m521.4 319v6.4c-0.6-0.1-1-0.1-1.5-0.1-3.9 0-6.4 2.1-6.4 6.6v11.3h-6.9v-23.9h6.6v3.2c1.7-2.3 4.5-3.5 8.2-3.5z"/><path fill-rule="evenodd" class="g" d="m549.7 310.3v32.9h-6.6v-2.7c-1.8 2.1-4.3 3.1-7.5 3.1-6.8 0-12-4.8-12-12.3 0-7.5 5.2-12.3 12-12.3 2.9 0 5.4 0.9 7.1 2.9v-11.6zm-6.8 21c0-4.2-2.6-6.6-6-6.6-3.5 0-6.2 2.4-6.2 6.6 0 4.1 2.7 6.6 6.2 6.6 3.4 0 6-2.5 6-6.6z"/><path class="a" d="m603 368.9c0 0.3-74 0.6-165.3 0.6-91.4 0-165.5-0.3-165.5-0.6 0-0.2 74.1-0.5 165.5-0.5 91.3 0 165.3 0.3 165.3 0.5z"/><path class="a" d="m595.3 673.5c0 0.3-74.1 0.5-165.4 0.5-91.4 0-165.4-0.2-165.4-0.5 0-0.3 74-0.6 165.4-0.6 91.3 0 165.4 0.3 165.4 0.6z"/><path class="a" d="m520.5 696.3c0 0.3-41.2 0.6-91.9 0.6-50.8 0-91.9-0.3-91.9-0.6 0-0.3 41.1-0.5 91.9-0.5 50.7 0 91.9 0.2 91.9 0.5z"/><path class="f" d="m302 457.6l6.3 3.4-2.9 4.7-6.3-3.7 0.1 6.9h-5.4l0.1-7-6.3 3.8-2.8-4.7 6.3-3.4-6.3-3.5 2.8-4.7 6.3 3.8-0.1-7h5.4l-0.1 7 6.3-3.8 2.9 4.7z"/><path class="f" d="m373.8 457.6l6.3 3.4-2.8 4.7-6.3-3.7 0.1 6.9h-5.4v-7l-6.3 3.8-2.8-4.7 6.3-3.4-6.3-3.5 2.8-4.7 6.3 3.8v-7h5.4l-0.1 7 6.3-3.8 2.8 4.7z"/><path class="f" d="m443.8 457.6l6.2 3.4-2.8 4.7-6.3-3.7 0.1 6.9h-5.4l0.1-7-6.4 3.8-2.7-4.7 6.2-3.4-6.2-3.5 2.7-4.7 6.4 3.8-0.1-7h5.4l-0.1 7 6.3-3.8 2.8 4.7z"/><path class="f" d="m511.5 457.6l6.3 3.4-2.9 4.7-6.3-3.7 0.1 6.9h-5.4l0.1-7-6.3 3.8-2.8-4.7 6.3-3.4-6.3-3.5 2.8-4.7 6.3 3.8-0.1-7h5.4l-0.1 7 6.3-3.8 2.9 4.7z"/><path class="f" d="m578.7 457.6l6.3 3.4-2.8 4.7-6.4-3.7 0.1 6.9h-5.4l0.1-7-6.3 3.8-2.8-4.7 6.3-3.4-6.3-3.5 2.8-4.7 6.3 3.8-0.1-7h5.4l-0.1 7 6.4-3.8 2.8 4.7z"/><path fill-rule="evenodd" class="g" d="m313.1 501.2h-30.3c-7.8 0-14.1-6.4-14.1-14.2v-53.8c0-7.8 6.3-14.1 14.1-14.1h30.3c7.8 0 14.2 6.3 14.2 14.1v53.8c0 7.8-6.4 14.2-14.2 14.2zm-30.3-81.1c-7.2 0-13.1 5.9-13.1 13.1v53.8c0 7.3 5.9 13.2 13.1 13.2h30.3c7.3 0 13.2-5.9 13.2-13.2v-53.8c0-7.2-5.9-13.1-13.2-13.1z"/><path fill-rule="evenodd" class="g" d="m383.5 501.2h-30.3c-7.8 0-14.1-6.4-14.1-14.2v-53.8c0-7.8 6.3-14.1 14.1-14.1h30.3c7.8 0 14.2 6.3 14.2 14.1v53.8c0 7.8-6.4 14.2-14.2 14.2zm-30.3-81.1c-7.2 0-13.1 5.9-13.1 13.1v53.8c0 7.3 5.9 13.2 13.1 13.2h30.3c7.3 0 13.2-5.9 13.2-13.2v-53.8c0-7.2-5.9-13.1-13.2-13.1z"/><path fill-rule="evenodd" class="g" d="m452 501.2h-30.3c-7.8 0-14.2-6.4-14.2-14.2v-53.8c0-7.8 6.4-14.1 14.2-14.1h30.3c7.8 0 14.1 6.3 14.1 14.1v53.8c0 7.8-6.3 14.2-14.1 14.2zm-30.3-81.1c-7.3 0-13.2 5.9-13.2 13.1v53.8c0 7.3 5.9 13.2 13.2 13.2h30.3c7.2 0 13.1-5.9 13.1-13.2v-53.8c0-7.2-5.9-13.1-13.1-13.1z"/><path fill-rule="evenodd" class="g" d="m521.2 501.2h-30.3c-7.8 0-14.2-6.4-14.2-14.2v-53.8c0-7.8 6.4-14.1 14.2-14.1h30.3c7.8 0 14.1 6.3 14.1 14.1v53.8c0 7.8-6.3 14.2-14.1 14.2zm-30.3-81.1c-7.3 0-13.2 5.9-13.2 13.1v53.8c0 7.3 5.9 13.2 13.2 13.2h30.3c7.2 0 13.1-5.9 13.1-13.2v-53.8c0-7.2-5.9-13.1-13.1-13.1z"/><path fill-rule="evenodd" class="g" d="m588.4 501.2h-30.3c-7.8 0-14.1-6.4-14.1-14.2v-53.8c0-7.8 6.3-14.1 14.1-14.1h30.3c7.8 0 14.1 6.3 14.1 14.1v53.8c0 7.8-6.3 14.2-14.1 14.2zm-30.3-81.1c-7.3 0-13.1 5.9-13.1 13.1v53.8c0 7.3 5.8 13.2 13.1 13.2h30.3c7.2 0 13.1-5.9 13.1-13.2v-53.8c0-7.2-5.9-13.1-13.1-13.1z"/><path class="f" d="m586.2 625.6h-294.4c-12.5 0-22.6-10.1-22.6-22.6v-14.3c0-12.5 10.1-22.6 22.6-22.6h294.4c12.4 0 22.5 10.1 22.5 22.6v14.3c0 12.5-10.1 22.6-22.5 22.6z"/><path fill-rule="evenodd" class="c" d="m396.1 583.9h9.1c6.6 0 11.1 4 11.1 10.1 0 6.1-4.5 10-11.1 10h-9.1zm8.9 16.3c4 0 6.6-2.4 6.6-6.2 0-3.9-2.6-6.3-6.6-6.3h-4.2v12.5z"/><path fill-rule="evenodd" class="c" d="m418.4 596.3c0-4.7 3.6-8 8.5-8 4.9 0 8.5 3.3 8.5 8 0 4.7-3.6 8-8.5 8-4.9 0-8.5-3.3-8.5-8zm12.4 0c0-2.7-1.7-4.3-3.9-4.3-2.2 0-4 1.6-4 4.3 0 2.7 1.8 4.3 4 4.3 2.2 0 3.9-1.6 3.9-4.3z"/><path class="c" d="m454.2 595.2v8.8h-4.5v-8.1c0-2.5-1.2-3.7-3.1-3.7-2.2 0-3.7 1.3-3.7 4.2v7.6h-4.5v-15.4h4.3v1.8c1.2-1.3 3-2.1 5.1-2.1 3.6 0 6.4 2.2 6.4 6.9z"/><path fill-rule="evenodd" class="c" d="m473.5 597.6h-11.7c0.4 1.9 2.1 3.1 4.4 3.1 1.6 0 2.8-0.5 3.9-1.5l2.4 2.6c-1.5 1.6-3.6 2.5-6.4 2.5-5.4 0-8.8-3.4-8.8-8 0-4.6 3.5-8 8.2-8 4.6 0 8.1 3.1 8.1 8.1 0 0.3-0.1 0.8-0.1 1.2zm-11.8-2.7h7.6c-0.3-1.9-1.7-3.2-3.8-3.2-2 0-3.5 1.3-3.8 3.2z"/><path class="f" d="m495.7 222c0 33.2-26.9 60.1-60.1 60.1-33.2 0-60.1-26.9-60.1-60.1 0-33.2 26.9-60.1 60.1-60.1 33.2 0 60.1 26.9 60.1 60.1z"/><path class="c" d="m425 211.1h-1v-5.6c0-6.5 5.3-11.7 11.8-11.7 6.4 0 11.7 5.2 11.7 11.7v4.6h-1v-4.6c0-5.9-4.8-10.7-10.7-10.7-5.9 0-10.8 4.8-10.8 10.7z"/><path fill-rule="evenodd" class="c" d="m450.5 250.3h-29.8c-2.7 0-4.9-2.2-4.9-4.9v-29.9c0-2.7 2.2-4.9 4.9-4.9h29.8c2.7 0 5 2.2 5 4.9v29.9c0 2.7-2.3 4.9-5 4.9zm-29.8-38.7c-2.2 0-3.9 1.8-3.9 3.9v29.9c0 2.1 1.7 3.9 3.9 3.9h29.8c2.2 0 4-1.8 4-3.9v-29.9c0-2.1-1.8-3.9-4-3.9z"/><path fill-rule="evenodd" class="c" d="m435.8 231.4c-2.6 0-4.7-2.1-4.7-4.7 0-2.5 2.1-4.6 4.7-4.6 2.5 0 4.6 2.1 4.6 4.6 0 2.6-2.1 4.7-4.6 4.7zm0-8.3c-2.1 0-3.7 1.6-3.7 3.6 0 2.1 1.6 3.7 3.7 3.7 2 0 3.6-1.6 3.6-3.7 0-2-1.6-3.6-3.6-3.6z"/><path class="c" d="m436.1 239.2h-1v-8.5h1z"/><path class="h" d="m853.6 852.5l-37.7-87-43.3 27.8 45.9 79.6 23-10.4z"/><filter id="f0"><feFlood flood-color="#cd2c22" flood-opacity="1" /><feBlend mode="normal" in2="SourceGraphic"/><feComposite in2="SourceAlpha" operator="in" /></filter><g filter="url(#f0)"><path class="i" d="m852.8 847.7l1.2 2.5c0 0 50.3-4.3 54.8 3.4l-83.3 41.4-12.7-28.3c15.3-0.4 28.6-6.2 40-19z"/></g><g style="opacity:.6"><path class="c" d="m825.7 871.4c-1.4 1.3-1.6 3.6-0.4 5.1 1.1 1.4 3.5 1.6 5 0.4 1.4-1.2 1.7-4 0.4-5.3-1.4-1.3-4.2-1.5-5.3 0.1"/></g><g style="opacity:.6"><path class="c" d="m825.5 895l-3-6.8 80.9-37.2c0 0 4.5-0.2 5.4 2.6z"/></g><path class="g" d="m854.4 850.2c0.2 0.5-1.7 1.6-3.1 4-1.4 2.2-1.5 4.5-2 4.5-0.4 0.1-1-2.6 0.7-5.4 1.6-2.7 4.3-3.5 4.4-3.1z"/><path class="g" d="m865 849.5c0.3 0.4-1.2 1.9-1.7 4.3-0.6 2.4 0 4.5-0.4 4.6-0.4 0.3-1.8-2-1.1-4.9 0.7-3 3-4.4 3.2-4z"/><path class="g" d="m875.1 857.5c-0.3 0.3-1.9-1.5-1.9-4.2-0.1-2.8 1.4-4.6 1.7-4.4 0.4 0.3-0.2 2.1-0.2 4.3 0.1 2.3 0.8 4 0.4 4.3z"/><path class="h" d="m782.6 867.7l1.5-94.9-50.9 7.5 9.1 91.4 25.2 0.1z"/><filter id="f1"><feFlood flood-color="#cd2c22" flood-opacity="1" /><feBlend mode="normal" in2="SourceGraphic"/><feComposite in2="SourceAlpha" operator="in" /></filter><g filter="url(#f1)"><path class="i" d="m783.9 862.9l0.1 2.7c0 0 47.6 16.8 48.5 25.7l-93 3.5 0.1-31c14.1 5.9 28.6 6.1 44.3-0.9z"/></g><g style="opacity:.6"><path class="c" d="m749.4 873.3c-1.8 0.6-2.9 2.7-2.5 4.5 0.5 1.8 2.6 3 4.4 2.5 1.8-0.6 3.3-3 2.6-4.8-0.7-1.7-3.2-3-4.8-2"/></g><g style="opacity:.6"><path class="c" d="m739.5 894.8v-7.5l89.1-0.6c0 0 4.2 1.7 3.9 4.6z"/></g><path class="g" d="m784.3 865.9c0 0.4-2.2 0.7-4.4 2.3-2.2 1.5-3.3 3.5-3.7 3.3-0.5-0.1 0.1-2.8 2.8-4.6 2.6-1.9 5.4-1.4 5.3-1z"/><path class="g" d="m794.2 869.6c0.1 0.4-1.8 1.2-3.3 3.2-1.5 1.9-1.8 4-2.3 4-0.4 0.1-0.8-2.5 1.1-5 1.8-2.4 4.5-2.7 4.5-2.2z"/><path class="g" d="m800.2 881c-0.4 0.1-1.1-2.1-0.1-4.6 1.1-2.6 3.2-3.6 3.4-3.3 0.3 0.4-1 1.8-1.9 3.9-0.9 2-0.9 4-1.4 4z"/><path class="g" d="m746 480.8l-1.9-74.7-72.7 3.8-2.4 8.8c0 0-6.5 22.7-9.5 41.6-4.9 31.3-4.3 59.8 8 93.3 12.3 33.4 31.5 97 31.5 97l72.2 199.3 84-27.6z"/><path class="g" d="m790 403.6l6.3 20.7c9.4 6 24.4 35.4 25.8 47.5 1.4 12 4.1 53.2 1.3 101.6-2.4 39.7-22.1 272.3-22.1 272.3l-79.4 4.2 8.2-376.1 3.5-67.2z"/><path class="j" d="m653.8 467.2c0 0.1 1 0.4 2.8 0.8 1.8 0.4 4.4 0.9 7.7 1.1 6.6 0.4 16-0.7 25.1-5.2 9.2-4.6 15.7-11.4 19.4-16.9 1.8-2.7 3.1-5.1 3.8-6.8 0.8-1.7 1.1-2.6 1-2.7-0.2-0.1-1.7 3.8-5.5 9.1-3.8 5.2-10.2 11.9-19.2 16.3-8.9 4.4-18.1 5.6-24.6 5.4-6.5-0.2-10.4-1.3-10.5-1.1z"/><path class="j" d="m787 427.2c-0.1 0.1 0.1 0.7 0.4 1.8 0.4 1.1 1 2.6 1.9 4.5 1.7 3.7 4.6 8.6 8.8 13.3 4.1 4.7 8.6 8.3 12.1 10.5 1.8 1.1 3.2 1.9 4.2 2.3 1.1 0.5 1.7 0.8 1.7 0.7 0.1-0.2-2.1-1.4-5.4-3.7-3.4-2.3-7.7-5.9-11.8-10.5-4.1-4.6-7.1-9.4-8.9-13-1.9-3.6-2.9-5.9-3-5.9z"/><path class="j" d="m749.5 490.8q0.1 0 0.6 1.5 0.5 1.6 1.4 4.6c1.3 4 3.2 10 5.6 17.6 4.7 15.4 11.6 37.5 20.1 64.9 17.2 54.7 39.1 130.9 68.5 213.4q5.1 14.9 10 29.3l0.2 0.5-0.5 0.2c-29.5 9.7-57.8 18.9-84.1 27.6l-0.4 0.1-0.2-0.4c-19.7-54.6-36.4-101.1-48.3-134-5.9-16.4-10.5-29.4-13.7-38.4q-2.4-6.6-3.6-10.2-0.6-1.7-0.9-2.6-0.3-0.9-0.3-0.9 0 0 0.3 0.9 0.4 0.9 1 2.6 1.3 3.5 3.8 10.1c3.2 9 8 21.9 14 38.3 11.9 32.9 28.8 79.3 48.6 133.8l-0.6-0.3c26.3-8.6 54.5-17.9 84-27.6l-0.3 0.6q-4.9-14.4-10-29.2c-29.4-82.5-51.2-158.8-68.2-213.6-8.4-27.4-15.1-49.6-19.8-65-2.3-7.6-4.1-13.6-5.4-17.7q-0.9-3-1.3-4.6-0.5-1.5-0.5-1.5z"/><path class="k" d="m821 273.9c0 0-3.8-21.3-14.7-31.4-10.9-10.2-56.3-21.7-56.3-21.7 0 0 0.5 15.7-9.6 20-10.8 4.5-21.5 2.9-30.1-6-8.2-8.6-10.3-19.7-10.3-19.7 0 0-53.9 7.8-61.5 22.4-7.7 14.6-15.7 70-15.7 70l48.8 7.7-1.6 94.8 128.2-6.8-7.2-88.5 35.2 3.2z"/><path class="g" d="m681.3 317.8c0.1 0 0.1-0.8 0.1-2.1 0-1.4-0.1-3.4-0.3-5.8-0.2-4.9-0.6-11.7-1.2-19.1-0.5-7.5-1.1-14.3-1.6-19.1-0.2-2.5-0.4-4.5-0.6-5.8-0.1-1.4-0.3-2.1-0.3-2.1-0.1 0-0.1 0.7-0.1 2.1 0 1.4 0.1 3.4 0.3 5.8 0.2 4.9 0.6 11.7 1.2 19.1 0.5 7.5 1.1 14.2 1.6 19.1 0.2 2.5 0.4 4.4 0.6 5.8 0.1 1.4 0.3 2.1 0.3 2.1z"/><path class="g" d="m800.7 272.5c-0.3 0-2.8 9.7-5.6 21.8-2.8 12.1-4.8 21.9-4.5 22 0.3 0 2.8-9.7 5.6-21.8 2.8-12 4.8-21.9 4.5-22z"/><path class="g" d="m643.7 233.8c0 0.2 2.3 0.5 5.9 1.7 3.6 1.1 8.4 3.3 12.9 6.8 4.5 3.6 7.8 7.7 9.8 10.9 2 3.2 2.8 5.4 3 5.4 0.1-0.1-0.1-0.6-0.4-1.6-0.4-1.1-1-2.5-1.9-4.2-1.9-3.3-5.1-7.7-9.8-11.3-4.7-3.7-9.7-5.8-13.4-6.8-1.8-0.5-3.4-0.7-4.4-0.8-1.1-0.1-1.7-0.1-1.7-0.1z"/><path class="g" d="m807.3 246.7c-0.3 0-1.1 3-1.9 6.8-0.7 3.8-1.1 6.9-0.8 7 0.3 0.1 1.1-3 1.9-6.8 0.8-3.8 1.1-6.9 0.8-7z"/><path class="h" d="m631.5 308.9c0 0 18.3 72.6 20.3 78.8 2 6.2 5.5 22.9 23.2 25.5 23.9 3.5 116.5-4.7 116.5-4.7l-18.7-21.2-82.4-18.5-13.9-52.8z"/><path class="l" d="m773.7 374.8c-0.1 0-0.3 0.6-0.6 1.7-0.3 1.2-0.6 2.9-0.7 5-0.2 4.2 0.7 10.2 4.2 15.8 1.7 2.7 3.6 5.2 5.7 7.1 2.1 1.9 4.4 3.1 6.4 3.8 2 0.6 3.7 0.8 4.9 0.8 1.2 0 1.9-0.1 1.8-0.2 0.1-0.2-2.6 0-6.4-1.4-2-0.7-4.1-1.9-6-3.8-2-1.8-3.8-4.2-5.5-6.9-3.3-5.3-4.3-11.1-4.3-15.2 0-4.1 0.7-6.7 0.5-6.7z"/><path class="i" d="m680.8 300.1c-0.1 0.1-0.8 0-2.2-0.2q-2.5-0.3-6-0.8c-5-0.8-11.9-1.6-19.5-2.6-7.7-1-14.6-2.2-19.5-3.4-2.5-0.6-4.5-1.1-5.8-1.5-1.4-0.5-2.1-0.7-2.1-0.8 0.1-0.2 3.1 0.6 8 1.6 5 1 11.9 2.1 19.5 3.1 7.6 1 14.6 1.9 19.6 2.8 2.5 0.5 4.5 0.9 5.8 1.2 1.4 0.3 2.2 0.6 2.2 0.6z"/><path class="i" d="m676.9 275.9c0 0.1-0.6 0.2-1.8 0.2-1.3 0-3-0.1-5.2-0.2-4.3-0.2-10.3-0.7-16.9-1.5-6.6-0.8-12.6-1.9-16.8-2.7-2.2-0.5-3.9-0.8-5.1-1.1-1.2-0.3-1.8-0.5-1.8-0.6 0-0.2 2.7 0.3 7 0.9 4.3 0.7 10.2 1.6 16.8 2.4 6.6 0.8 12.5 1.4 16.9 1.8 4.3 0.4 7 0.7 6.9 0.8z"/><path class="i" d="m672.8 257.6c0 0.1-2.2 0.1-5.7-0.1-3.5-0.2-8.3-0.8-13.6-1.7-5.3-1-10-2.3-13.4-3.4-3.3-1-5.3-1.9-5.3-2 0.1-0.1 2.1 0.4 5.5 1.3 3.4 0.9 8.1 2 13.4 3 5.2 1 10 1.6 13.5 2.1 3.5 0.4 5.6 0.6 5.6 0.8z"/><path class="i" d="m707.1 231.3c0 0.2-2.5 0.9-6.5 1.9-4 1.1-9.6 2.4-15.7 3.6-6.2 1.2-11.9 2.2-16 2.8-4.1 0.6-6.6 0.8-6.6 0.7-0.1-0.2 2.4-0.7 6.5-1.5 4.4-0.8 9.8-1.9 15.8-3 6.1-1.3 11.5-2.4 15.9-3.3 4-0.8 6.5-1.3 6.6-1.2z"/><path class="i" d="m806.4 252.9c0 0.1-0.9-0.2-2.3-0.8q-2.5-1-6.1-2.5c-5.2-2.1-12.3-5-20.2-8.1-7.9-3.1-15.1-5.8-20.4-7.7q-3.6-1.4-6.2-2.3c-1.4-0.6-2.2-0.9-2.2-1 0 0 0.9 0.2 2.4 0.6 1.5 0.4 3.6 1.1 6.3 2 5.3 1.7 12.6 4.3 20.5 7.4 7.9 3.1 15 6.1 20.1 8.4 2.5 1.2 4.6 2.2 6 2.9 1.4 0.7 2.1 1.1 2.1 1.1z"/><path class="i" d="m800.7 271.6q0 0.1-1.2-0.1-1.4-0.2-3.6-0.6c-3.2-0.5-7.6-1.3-13-2.2-11-2-26.1-4.6-43-6.7-8.5-0.9-16.5-1.6-23.9-2.1-7.3-0.3-14-0.5-19.5-0.4-2.8 0-5.3 0.1-7.5 0.2-2.2 0-4.1 0.1-5.7 0.2q-2.2 0.1-3.6 0.2-1.2 0-1.2 0 0-0.1 1.2-0.2 1.4-0.2 3.6-0.4c1.5-0.2 3.4-0.3 5.6-0.4 2.3-0.2 4.8-0.4 7.6-0.4 5.5-0.2 12.2-0.1 19.6 0.2 7.4 0.4 15.4 1.1 23.9 2.1 16.9 2 32.1 4.8 43.1 6.9 5.4 1.1 9.9 2 12.9 2.6q2.1 0.5 3.5 0.8 1.2 0.3 1.2 0.3z"/><path class="i" d="m749 304.3c0 0.1-1 0.1-2.8-0.1-1.7-0.1-4.3-0.3-7.4-0.6-6.3-0.7-15-1.8-24.5-3.5-9.5-1.8-18-3.8-24.1-5.4-3.1-0.8-5.6-1.5-7.2-2-1.7-0.5-2.7-0.8-2.6-0.9 0-0.1 0.9 0.1 2.7 0.5q2.9 0.7 7.2 1.7c6.2 1.4 14.7 3.3 24.2 5 9.5 1.7 18.1 3 24.4 3.8q4.4 0.6 7.4 1c1.7 0.3 2.7 0.4 2.7 0.5z"/><path class="i" d="m792.5 305c0 0.3-9.1 0.6-20.3 0.7-11.3 0.1-20.4 0-20.4-0.3 0-0.3 9.1-0.6 20.4-0.8 11.2-0.1 20.3 0.1 20.3 0.4z"/><path class="i" d="m735.4 333.7c0 0.1-0.8 0.1-2.3-0.1-1.4-0.1-3.4-0.4-5.9-0.7-5.1-0.7-12-2-19.6-3.7-7.5-1.8-14.3-3.8-19.1-5.4-2.4-0.8-4.4-1.4-5.7-2-1.3-0.5-2-0.8-2-0.8 0-0.1 0.8 0.1 2.1 0.4q2.4 0.7 5.8 1.7c4.9 1.4 11.6 3.3 19.2 5 7.5 1.8 14.4 3.1 19.4 4q3.5 0.7 5.9 1.1c1.4 0.3 2.2 0.4 2.2 0.5z"/><path class="i" d="m782.5 335.8c0 0.1-2.5 0.2-6.5 0.1-4-0.2-9.4-0.6-15.5-1.4-6-0.7-11.4-1.8-15.3-2.6-3.9-0.9-6.2-1.6-6.2-1.7 0.1-0.2 2.5 0.2 6.4 0.9 3.9 0.7 9.3 1.6 15.3 2.4 6 0.8 11.4 1.3 15.4 1.6 3.9 0.4 6.4 0.5 6.4 0.7z"/><path class="i" d="m772.6 361.9q0 0.1-0.8 0.4c-0.5 0.1-1.3 0.4-2.4 0.7-2.1 0.6-5.1 1.3-9 1.8-7.6 1.3-18.5 1.6-30.2 0.3-11.8-1.3-22.3-3.7-29.8-5.6-3.8-0.9-6.8-1.7-8.9-2.3-2.1-0.5-3.2-0.9-3.2-1 0 0 1.2 0.2 3.3 0.6 2.3 0.5 5.3 1.2 9 2 7.5 1.6 18 3.9 29.7 5.2 11.7 1.4 22.4 1.1 30 0.1 3.8-0.5 6.9-1.1 9-1.5 2.1-0.5 3.3-0.8 3.3-0.7z"/><path class="i" d="m818.9 286.9c0 0.3-4.6 0.5-10.2 0.8-5.6 0.3-10.2 0-10.2-0.3 0-0.3 4.6-0.5 10.2-0.8 5.6-0.3 10.2 0 10.2 0.3z"/><path class="i" d="m816.2 262.5c-0.1 0.3-2.5 0.4-5.6 0.2-3.1-0.2-5.5-0.6-5.5-0.9 0-0.3 2.5-0.4 5.6-0.2 3 0.2 5.5 0.6 5.5 0.9z"/><path class="g" d="m731.5 335.5c-0.1-0.2 2.1-1.3 5.1-3.8 1.5-1.2 3.1-2.9 4.7-4.8 1.6-2.1 3.2-4.4 4.5-7.1 1.3-2.6 2.1-5.3 2.7-7.8 0.5-2.5 0.8-4.8 0.8-6.8 0.1-3.8-0.4-6.2-0.2-6.3 0.1 0 0.3 0.6 0.5 1.7 0.1 0.5 0.3 1.2 0.3 2 0.1 0.8 0.2 1.7 0.2 2.6 0.1 2-0.1 4.4-0.6 7-0.6 2.6-1.5 5.4-2.8 8.1-1.3 2.7-2.9 5.1-4.6 7.2-1.7 2-3.5 3.6-5.1 4.8-0.7 0.6-1.5 1.1-2.2 1.5-0.6 0.5-1.2 0.8-1.7 1-1 0.5-1.6 0.7-1.6 0.7z"/><g style="opacity:.3"><path  d="m748.6 316l-7.8 11.5c-5.2 6.6-12.6 11.2-20.8 13 7.2 2.5 15.6 0.9 21.4-4 5.7-4.9 8.6-13 7.2-20.5z"/></g><path class="g" d="m771.7 195.5c7.4 0.6 14.9-0.9 21.4-4.4-9.6-5.9-15.7-16.5-18.7-27.5-2.9-11-6.8-29.7-6.9-41l-17.7 78.7c9.3 2.1 19.3 1.4 28.1-2.2-2.5-0.1-4.9-1.5-6.2-3.6z"/><path class="g" d="m721.1 204.9c-3.8-8.8-5.3-18.6-4.3-28.1l-35.7-13.6c-1.6 9.7-5.5 19-11.4 26.9-2.2 2.9-4.8 6.4-3.7 9.9 0.7 2.5 3 4.1 5.5 4.8 2.5 0.6 5.1 0.3 7.6 0q-2.3 2.5-4.6 5c15.4-2.9 31-4.6 46.6-4.9z"/><path class="g" d="m724.1 87.3c-11.2-1.1-20.7 3.8-29.7 10.7-9 6.9-15.5 16.8-18.9 27.6-3.5 11.4-3.8 24 0.3 35.2 4 11.2 12.5 20.9 23.5 25.6 15 6.4 33.4 2.6 45.7-8 12.3-10.7 18.6-27.4 18.2-43.6-0.3-11.3-3.7-22.5-10.6-31.4-6.8-8.9-17.3-15.2-28.5-16.1z"/><path class="g" d="m694.9 127.3c1.4-4.4 0.4-9.1 0.8-13.7 0.8-10 8.3-18.5 17.3-23 8.4-4.2 18.9-4.1 29.5-1.4 7.3 1.9 14.3 5.4 19.4 10.9 6.8 7.3 9.7 18 7.6 27.7l-51.4-4.1c-4.5 4.3-9.1 8.6-14.8 11.2-1.6 0.7-3.4 1.3-5.2 1.2-1.8-0.2-3.6-1.3-4.2-3.1-0.6-1.8 0.4-3.8 1-5.7z"/><path class="h" d="m744.6 103.2l-43.9 12.3c-4.2 0.6-7.4 4.3-7.2 8.6l6.9 96.2c0.4 6.5 3 12.8 7.4 17.7l4.6 5.2c10.5 11.8 30 9.3 36.4-5.1q0.7-1.6 0.9-2.6c0.1-0.9 0.3-1.5 0.3-2.2 0.7-7.6-0.2-14.6-0.2-14.6-0.1-8.6-0.2-12.1-0.2-12.1 0 0 18-3.5 21.1-27.2 1.6-11.8 0.5-31-0.9-46.8-1.3-14.1-11.2-31.3-25.2-29.4z"/><path class="g" d="m761.3 147.8c0.1 1.6-1.1 3-2.8 3.1-1.7 0.1-3.1-1.1-3.2-2.6-0.1-1.6 1.2-3.1 2.8-3.2 1.7-0.1 3.1 1.1 3.2 2.7z"/><path class="g" d="m765.9 142.8c-0.4 0.4-2.8-1.3-6-1.2-3.3 0.1-5.6 1.8-6 1.4-0.2-0.1 0.2-0.9 1.2-1.7 1-0.7 2.8-1.5 4.8-1.6 2 0 3.7 0.7 4.8 1.4 1 0.8 1.3 1.5 1.2 1.7z"/><path class="g" d="m730.5 149.4c0.1 1.6-1.2 3-2.9 3.1-1.6 0.2-3.1-1-3.2-2.6-0.1-1.6 1.2-3 2.9-3.2 1.6-0.1 3.1 1.1 3.2 2.7z"/><path class="g" d="m733.8 144.2c-0.4 0.4-2.7-1.2-6-1.1-3.2 0-5.6 1.8-5.9 1.4-0.2-0.2 0.1-0.9 1.2-1.7 1-0.8 2.7-1.6 4.7-1.6 2.1 0 3.8 0.7 4.8 1.4 1 0.7 1.4 1.4 1.2 1.6z"/><path class="g" d="m746.3 168.1c0-0.2 2-0.6 5.3-1.1 0.8-0.1 1.6-0.3 1.7-0.9 0.2-0.6-0.2-1.5-0.6-2.4q-1.3-3-2.7-6.3c-3.6-8.9-6.3-16.3-5.9-16.4 0.3-0.2 3.6 6.9 7.3 15.9q1.3 3.3 2.5 6.3c0.3 0.9 0.9 2 0.5 3.3-0.2 0.6-0.8 1.1-1.3 1.2-0.6 0.2-1 0.2-1.4 0.2-3.3 0.3-5.4 0.4-5.4 0.2z"/><path class="l" d="m749.6 206.6c0 0-15.9 1.5-31.9-7.6 0 0 8.4 16.2 32 13.3z"/><path class="l" d="m745.1 176c-1.2-1.5-3.3-2.3-5.3-2-1.4 0.1-2.8 0.9-3.7 2-0.8 1.2-0.9 2.9-0.1 3.9 0.9 1.2 2.7 1.5 4.3 1 1.5-0.5 2.8-1.5 4.1-2.6 0.3-0.3 0.7-0.6 0.9-1 0.2-0.4 0.2-0.9 0-1.2"/><path class="g" d="m736.8 170.6c0.5 0 0.6 3.5 3.7 5.9 3.1 2.5 6.8 2 6.9 2.5 0 0.2-0.8 0.7-2.4 0.8-1.6 0.1-3.9-0.4-5.8-1.9-1.9-1.5-2.7-3.5-2.9-4.9-0.2-1.5 0.2-2.4 0.5-2.4z"/><path class="g" d="m734.1 134.3c-0.3 0.9-3.6 0.6-7.4 1.2-3.8 0.5-6.9 1.7-7.4 0.9-0.2-0.4 0.3-1.2 1.5-2.1 1.2-0.9 3.2-1.8 5.5-2.1 2.3-0.3 4.4 0 5.8 0.5 1.4 0.5 2.1 1.2 2 1.6z"/><path class="g" d="m764.5 128.5c-0.5 0.8-2.8 0.1-5.5 0.1-2.7-0.1-5 0.6-5.5-0.1-0.3-0.4 0.1-1.1 1.1-1.9 0.9-0.7 2.6-1.3 4.4-1.3 1.9 0 3.5 0.6 4.5 1.4 0.9 0.7 1.3 1.5 1 1.8z"/><path class="g" d="m686.3 121c3.8-13.9 22.7-33.6 37-33.3l23.4 12.7c-1 7.8-6.7 14.8-14.2 17.5-3.9 1.4-8.8 1.9-11 5.5-2.3 3.7-0.6 8.7-2.7 12.5-3 5.2-11.6 5.4-13.7 10.9-1 2.5-0.3 5.3-1.3 7.7-1.2 3.2-9.1 7.6-12.4 6.7-3.4-0.9-3.6-6.5-4.9-9.4-2-5-1.4-7.6-0.9-10.5 1.1-6.7-1-13.7 0.7-20.3z"/><path class="h" d="m701.3 163.6c-0.1-1.8-2.2-5.9-4-6.1-4.6-0.6-13 0-12.8 11.8 0.4 16.1 16.5 12.4 16.5 12 0-0.4 0.4-11.7 0.3-17.7z"/><path class="l" d="m696 175.3c-0.1-0.1-0.3 0.2-0.8 0.4-0.4 0.2-1.2 0.4-2.1 0.1-1.7-0.6-3.2-3.3-3.3-6.2-0.1-1.5 0.2-2.9 0.7-4 0.4-1.2 1.2-2.1 2-2.2 0.9-0.2 1.5 0.3 1.7 0.7 0.2 0.5 0.2 0.8 0.2 0.8 0.1 0.1 0.4-0.3 0.2-0.9 0-0.3-0.2-0.7-0.6-1-0.4-0.3-1-0.5-1.6-0.4-1.2 0.1-2.3 1.3-2.9 2.6-0.6 1.2-0.9 2.8-0.8 4.5 0.1 3.2 1.8 6.2 4.2 6.8 1.1 0.3 2.1 0 2.5-0.4 0.5-0.4 0.6-0.8 0.6-0.8z"/><path class="g" d="m682.6 117c-0.3-5-6.7-7.9-11.7-8.7-5-0.8-10.1 1-14.3 3.7-2.5 1.6-5 3.8-5.4 6.7-0.3 2.9 2.7 6.2 5.3 4.9-5.1 2.2-7.3 9.4-4.3 14.1 3.1 4.7 10.6 5.5 14.6 1.6-1 4.7-3.8 9-7.6 12 8.4 0.6 16.9-3.5 21.6-10.4 4.7-6.9 5.5-16.3 1.8-23.9z"/><path class="g" d="m654.6 186c0-0.7 2.1-1.1 4.9-1.9 2.9-0.9 6.7-2.4 10.1-5 3.5-2.7 5.8-6 7.3-8.6 1.6-2.6 2.4-4.5 3.1-4.4 0.7 0.1 1.2 2.3 0.4 5.7-0.7 3.4-3.1 8-7.5 11.5-4.4 3.4-9.4 4.6-12.9 4.5-3.5 0-5.5-1.1-5.4-1.8z"/><path class="i" d="m673.1 143.3c-0.1 0-0.6-1.8-0.9-4.8-0.2-3-0.1-7.2 1.1-11.7 1.2-4.5 3.2-8.2 4.9-10.7 1.7-2.5 3.1-3.8 3.2-3.7 0.3 0.2-4.8 5.9-7.1 14.7-2.3 8.7-0.8 16.2-1.2 16.2z"/><path class="g" d="m741.7 95.8c1.9 6.4 12.4 14.2 17.1 19 9 9.2 10.8 12.3 12.2 34 3.4-7.7 5.9-15.3 5.1-23.7-0.9-8.5-4.5-16.8-10.8-22.5-6.3-5.7-15.3-8.6-23.6-6.8z"/><path class="h" d="m846.8 283.9c0 0-10.8 44.7-15.2 64-4.7 20.5-14.9 67-42.2 60.3-20.7-5.1-16.1-31.9-16.1-31.9l17.7-61.6 16.4 1.9 15.1-37.1 16.2-17.1z"/><path class="l" d="m780.5 377.8c0.3 0-1.6-3.8-0.5-10 0.5-3 1.8-6.5 3.8-10.1 2.1-3.5 4.9-7.1 8-10.8 3-3.7 5.8-7.4 7.9-11 2.2-3.6 3.7-7.1 4.9-10 1.1-3 1.8-5.5 2.2-7.2 0.4-1.7 0.6-2.7 0.5-2.7-0.1 0-0.4 0.9-0.9 2.6-0.6 1.7-1.4 4.1-2.6 7-1.2 2.8-2.8 6.2-5 9.7-2.1 3.6-4.9 7.2-7.9 10.9-3 3.7-5.9 7.3-7.9 11-2.1 3.7-3.3 7.4-3.8 10.5-0.4 3.2-0.1 5.8 0.3 7.5q0.4 1.3 0.7 2 0.3 0.6 0.3 0.6z"/><path class="h" d="m821.2 282.9c0-0.8 0.4-13.8 0.7-17.2 0.1-1.6 0.7-4.1 1.7-6.2 1.6-3 5.7-3.7 8.2-1.4l0.3 0.2c0 0 2.6-5.2 6.4-7.7 3.8-2.5 7-4.2 10.3-2.3 3.2 2 3.1 4.8 3.1 4.8 0 0 4.9-0.7 7 1.3 2.1 2 0 7.9 0 7.9 0 0 4.3-1.4 5.4 1.8 1 3.2-1 6.4-1 6.4 0 0 3.4 1.1 3.8 3.6 0.4 2.5-3.4 5.2-3.4 5.2l-11.8 9.5c-1.7 5.2-4.9 9.2-9.2 12-8.2 3.2-21.5-17.9-21.5-17.9z"/><path class="l" d="m830.2 268.8c0.2 0.1 0.1 0.5-0.2 1.1-0.3 0.6-1.1 1.4-2.1 1.8-1 0.4-2.1 0.3-2.7 0.1-0.7-0.2-1-0.6-0.9-0.7 0.1-0.3 1.6 0.2 3.2-0.4 1.7-0.6 2.5-2 2.7-1.9z"/><path class="l" d="m839.6 257.2c-0.1 0.2-1.3-0.6-1.5-2.1-0.2-1.6 0.7-2.7 0.9-2.5 0.3 0.2 0 1.2 0.2 2.3 0.1 1.2 0.7 2.1 0.4 2.3z"/><path class="l" d="m859.5 262.2c0.1 0.1-0.9 1.3-2.7 2.8-1.7 1.5-4.4 3.4-7.3 5.4-1.5 1-3.1 2-4.8 2.2-1.6 0.2-3.3-0.4-4-1.5-0.8-1.1-0.7-2.3-0.4-2.9 0.4-0.7 0.8-0.8 0.8-0.8 0.1 0.1-0.2 0.4-0.4 0.9-0.1 0.6-0.1 1.6 0.6 2.4 0.6 0.7 1.9 1.2 3.3 0.9 1.4-0.2 2.8-1.1 4.3-2.1 2.9-1.9 5.6-3.7 7.5-5.1 1.8-1.4 3-2.3 3.1-2.2z"/><path class="l" d="m863.3 270.6c0.1 0.3-5 2.8-11.3 5.7-1.6 0.8-3.3 1.5-4.9 1.5-1.7 0-3.3-0.9-3.7-2.2-0.3-0.6-0.3-1.3 0-1.8 0.2-0.5 0.5-0.8 0.8-1 0.7-0.3 1.1-0.1 1.1-0.1 0 0.1-0.4 0.1-0.8 0.5-0.5 0.3-0.9 1.2-0.4 2.1 0.4 0.9 1.6 1.5 3 1.5 1.3 0 2.8-0.7 4.4-1.4 6.4-2.9 11.6-5.1 11.8-4.8z"/><path class="l" d="m857.5 281.2c0.1 0.2-0.6 0.7-1.9 1-0.7 0.1-1.5 0.2-2.4 0.2-0.9 0-1.8 0-2.9-0.6-0.6-0.3-1-1.1-0.9-1.7 0.1-0.7 0.4-1.1 0.6-1.5 0.6-0.7 1.2-1.2 1.7-1.7 1.1-0.8 1.9-1 2-0.9 0.1 0.1-0.6 0.6-1.5 1.5-0.4 0.5-0.9 1-1.4 1.7-0.4 0.6-0.6 1.3 0 1.7 0.7 0.3 1.7 0.5 2.5 0.5 0.8 0.1 1.5 0.1 2.1 0 1.3-0.1 2-0.3 2.1-0.2z"/><path fill-rule="evenodd" class="g" d="m840 291.9l-0.8 20.1-4 2.4-2-2.3 0.1-1.7 1.7-0.9-1.6-1.2 0.1-2.9 2.7-1.6-2.6-2 0.1-3.4 2.8-1.5-2.6-2 0.1-2.7c-4.3-1.2-7.3-5.1-7.1-9.7 0.2-5.3 4.7-9.5 10-9.3 5.4 0.2 9.5 4.7 9.3 10-0.1 4-2.7 7.4-6.2 8.7zm-6.1-13.4c0 1.5 1.2 2.8 2.7 2.8 1.6 0.1 2.8-1.1 2.9-2.6 0.1-1.6-1.1-2.9-2.7-2.9-1.5-0.1-2.8 1.1-2.9 2.7z"/><path fill-rule="evenodd" class="m" d="m840 291.9l-0.8 20.1-4 2.4-2-2.3 0.1-1.7 1.7-0.9-1.6-1.2 0.1-2.9 2.7-1.6-2.6-2 0.1-3.4 2.8-1.5-2.6-2 0.1-2.7c-4.3-1.2-7.3-5.1-7.1-9.7 0.2-5.3 4.7-9.5 10-9.3 5.4 0.2 9.5 4.7 9.3 10-0.1 4-2.7 7.4-6.2 8.7zm-6.1-13.4c0 1.5 1.2 2.8 2.7 2.8 1.6 0.1 2.8-1.1 2.9-2.6 0.1-1.6-1.1-2.9-2.7-2.9-1.5-0.1-2.8 1.1-2.9 2.7z"/><path class="g" d="m836.8 275.8c0 0-0.2 0-0.6 0.1-0.5 0.1-1.1 0.4-1.6 1-0.4 0.5-0.7 1.5-0.4 2.5 0.3 0.9 1.2 1.8 2.4 1.8 1.2 0.1 2.2-0.7 2.6-1.6 0.4-1 0.2-2-0.3-2.6-0.4-0.6-1-0.9-1.4-1.1-0.4-0.1-0.7-0.1-0.7-0.1q0 0 0.2 0 0.2 0 0.5 0.1c0.4 0.1 1.1 0.4 1.6 1 0.4 0.7 0.7 1.7 0.3 2.8-0.2 0.5-0.6 0.9-1.1 1.3-0.4 0.3-1.1 0.5-1.7 0.5-0.6-0.1-1.2-0.3-1.7-0.7-0.4-0.3-0.8-0.8-0.9-1.4-0.4-1 0-2 0.5-2.7 0.5-0.6 1.2-0.8 1.6-0.9q0.4-0.1 0.5 0 0.2 0 0.2 0z"/><path class="g" d="m846.2 283.2q0 0 0 0.2 0 0.2 0 0.6c-0.1 0.5-0.2 1.2-0.5 2.2-0.3 0.9-0.9 2-1.8 3-0.9 1.1-2.2 2.2-3.9 2.8l0.1-0.1c-0.2 5.2-0.5 12.1-0.8 20.1v0.1c-1.3 0.7-2.6 1.5-4 2.4h-0.1-0.1c-0.6-0.8-1.3-1.5-2-2.3v-0.1q0-0.8 0.1-1.7v-0.1q0.8-0.4 1.7-0.9v0.2q-0.8-0.6-1.6-1.3h-0.1v-0.1c0.1-0.9 0.1-1.9 0.1-2.9l0.1-0.1c0.9-0.4 1.8-1 2.8-1.5v0.2c-0.9-0.6-1.8-1.3-2.7-2v-0.1q0-0.4 0-0.9 0.1-1.2 0.1-2.5l0.1-0.1q1.4-0.7 2.7-1.5v0.2q-1.3-1-2.6-2h-0.1v-0.1q0.1-1.4 0.1-2.7l0.1 0.1c-1.5-0.4-2.9-1.2-4-2.2q-0.8-0.8-1.4-1.7-0.7-1-1.1-2c-1.1-2.7-0.8-5.7 0.5-8.1 1.2-2.3 3.3-4 5.5-4.7 2.2-0.8 4.5-0.6 6.3 0 1.9 0.7 3.3 1.8 4.3 3 1 1.1 1.5 2.4 1.8 3.4q0.1 0.2 0.2 0.3 0 0.2 0 0.4 0.1 0.3 0.2 0.7c0 0.4 0.1 0.7 0.1 1q0 0.4 0 0.6-0.1 0.2-0.1 0.2 0 0 0-0.2 0-0.2 0-0.6c0-0.3-0.1-0.6-0.1-1q-0.1-0.3-0.1-0.7-0.1-0.2-0.1-0.3-0.1-0.2-0.1-0.4c-0.3-1-0.9-2.2-1.9-3.4-1-1.1-2.4-2.2-4.2-2.8-1.8-0.6-4.1-0.8-6.2 0-2.2 0.7-4.2 2.3-5.4 4.6-1.2 2.3-1.5 5.3-0.5 7.9q0.4 1 1 1.9 0.7 1 1.5 1.7c1.1 1 2.4 1.8 3.9 2.2h0.1v0.1q-0.1 1.3-0.1 2.7l-0.1-0.1q1.3 1 2.7 2l0.1 0.1-0.1 0.1q-1.4 0.8-2.8 1.5v-0.1q0 1.3 0 2.5-0.1 0.5-0.1 0.9v-0.1c0.9 0.7 1.8 1.4 2.6 2l0.2 0.1-0.2 0.1c-1 0.5-1.9 1.1-2.8 1.6l0.1-0.1c-0.1 1-0.1 1.9-0.1 2.9l-0.1-0.1q0.9 0.6 1.6 1.2l0.2 0.1-0.2 0.1q-0.9 0.5-1.7 0.9l0.1-0.1q0 0.9-0.1 1.7v-0.1c0.7 0.8 1.4 1.6 2 2.3h-0.1c1.4-0.8 2.7-1.7 4-2.4l-0.1 0.1c0.3-8 0.6-14.9 0.8-20.1h0.1c1.6-0.7 2.9-1.7 3.8-2.7 1-1.1 1.5-2.2 1.8-3.1 0.4-0.9 0.5-1.6 0.6-2.1q0-0.4 0-0.6 0-0.2 0-0.2z"/><path fill-rule="evenodd" class="f" d="m839 291.4l-0.8 20-4 2.4-2-2.3 0.1-1.6 1.7-1-1.7-1.2 0.2-2.9 2.7-1.5-2.6-2 0.1-3.4 2.8-1.6-2.6-2 0.1-2.6c-4.3-1.2-7.3-5.2-7.1-9.7 0.2-5.4 4.7-9.6 10-9.4 5.4 0.2 9.5 4.7 9.3 10.1-0.1 4-2.7 7.3-6.2 8.7zm-6.1-13.5c0 1.5 1.2 2.8 2.7 2.9 1.5 0 2.8-1.1 2.9-2.7 0.1-1.5-1.1-2.8-2.7-2.9-1.5 0-2.8 1.2-2.9 2.7z"/><path fill-rule="evenodd" class="m" d="m839 291.4l-0.8 20-4 2.4-2-2.3 0.1-1.6 1.7-1-1.7-1.2 0.2-2.9 2.7-1.5-2.6-2 0.1-3.4 2.8-1.6-2.6-2 0.1-2.6c-4.3-1.2-7.3-5.2-7.1-9.7 0.2-5.4 4.7-9.6 10-9.4 5.4 0.2 9.5 4.7 9.3 10.1-0.1 4-2.7 7.3-6.2 8.7zm-6.1-13.5c0 1.5 1.2 2.8 2.7 2.9 1.5 0 2.8-1.1 2.9-2.7 0.1-1.5-1.1-2.8-2.7-2.9-1.5 0-2.8 1.2-2.9 2.7z"/><path class="g" d="m835.8 275.2c0 0.1-0.2 0-0.7 0.1-0.4 0.1-1 0.4-1.5 1-0.5 0.6-0.7 1.6-0.4 2.5 0.3 1 1.2 1.8 2.4 1.9 1.2 0 2.2-0.8 2.6-1.7 0.4-0.9 0.2-1.9-0.3-2.5-0.4-0.7-1-1-1.4-1.1-0.4-0.1-0.7-0.1-0.7-0.2q0 0 0.2 0 0.2 0 0.5 0.1c0.4 0.1 1.1 0.4 1.6 1.1 0.4 0.6 0.7 1.7 0.3 2.7-0.2 0.5-0.6 1-1.1 1.3-0.4 0.4-1.1 0.5-1.7 0.5-0.6 0-1.2-0.2-1.7-0.6-0.5-0.4-0.8-0.9-0.9-1.4-0.4-1.1 0-2.1 0.5-2.7 0.5-0.6 1.2-0.9 1.6-1q0.4 0 0.5 0 0.2 0 0.2 0z"/><path class="g" d="m845.2 282.7q0 0 0 0.2 0 0.2 0 0.5c-0.1 0.5-0.2 1.3-0.5 2.2-0.3 0.9-0.9 2-1.8 3.1-0.9 1.1-2.2 2.1-3.9 2.8v-0.1c-0.1 5.2-0.4 12.1-0.7 20v0.1c-1.3 0.8-2.6 1.6-4 2.4l-0.1 0.1-0.1-0.1c-0.6-0.7-1.3-1.5-2-2.3v-0.1q0-0.8 0.1-1.6v-0.1q0.8-0.5 1.7-1v0.2q-0.8-0.6-1.6-1.2h-0.1v-0.1c0.1-0.9 0.1-1.9 0.1-2.9v-0.1h0.1c0.9-0.5 1.8-1 2.8-1.6v0.2c-0.9-0.6-1.8-1.3-2.7-1.9v-0.1q0-0.5 0-0.9 0.1-1.3 0.1-2.5v-0.1h0.1q1.4-0.8 2.7-1.6v0.2q-1.3-1-2.6-2h-0.1v-0.1q0.1-1.3 0.1-2.7l0.1 0.2c-1.5-0.5-2.9-1.2-4-2.3q-0.8-0.7-1.5-1.7-0.6-0.9-1-1.9c-1.1-2.8-0.8-5.8 0.5-8.1 1.2-2.4 3.3-4 5.5-4.7 2.2-0.8 4.5-0.6 6.3 0 1.9 0.6 3.3 1.7 4.3 2.9 1 1.2 1.5 2.4 1.8 3.4q0.1 0.2 0.2 0.4 0 0.2 0 0.4 0.1 0.3 0.2 0.6c0 0.4 0.1 0.8 0.1 1q-0.1 0.4-0.1 0.7 0 0.2 0 0.2 0 0 0-0.2 0-0.3 0-0.7c0-0.2-0.1-0.6-0.1-1q-0.1-0.3-0.1-0.6-0.1-0.2-0.1-0.4-0.1-0.2-0.1-0.4c-0.4-1-0.9-2.2-1.9-3.3-1-1.2-2.4-2.3-4.2-2.9-1.8-0.6-4.1-0.7-6.2 0-2.2 0.8-4.2 2.4-5.4 4.7-1.2 2.3-1.5 5.2-0.5 7.9q0.4 1 1 1.9 0.6 0.9 1.5 1.7c1.1 1 2.4 1.7 3.9 2.1l0.1 0.1v0.1q-0.1 1.3-0.1 2.7l-0.1-0.1q1.3 0.9 2.7 1.9l0.1 0.2h-0.1q-1.4 0.8-2.8 1.6v-0.1q0 1.2-0.1 2.5 0 0.4 0 0.9v-0.1c0.9 0.6 1.8 1.3 2.6 2l0.2 0.1-0.2 0.1c-1 0.5-1.9 1-2.8 1.5l0.1-0.1c-0.1 1-0.1 2-0.1 2.9l-0.1-0.1q0.9 0.6 1.6 1.2l0.2 0.1-0.2 0.1q-0.9 0.5-1.7 1l0.1-0.1q0 0.9-0.1 1.6c0.7 0.8 1.4 1.5 2 2.3l-0.1-0.1c1.3-0.8 2.7-1.6 4-2.4l-0.1 0.1c0.3-7.9 0.6-14.8 0.8-20v-0.1c1.7-0.6 3-1.6 3.9-2.7 0.9-1 1.5-2.1 1.8-3 0.4-0.9 0.5-1.7 0.6-2.2q0-0.3 0-0.5 0-0.2 0-0.2z"/><path class="g" d="m844.1 282.8c-0.1 0 0-0.8-0.3-2.1-0.1-0.7-0.4-1.5-0.8-2.3-0.5-0.8-1.2-1.7-2.1-2.5-0.9-0.7-2.1-1.4-3.5-1.7-1.4-0.3-2.9-0.3-4.4 0.2q-1.2 0.4-2.2 1.1c-0.3 0.2-0.7 0.5-1 0.8-0.3 0.3-0.6 0.6-0.8 0.9-1.1 1.4-1.8 3.1-1.9 4.9 0 1.9 0.5 3.6 1.5 5.1 0.2 0.3 0.5 0.6 0.8 1 0.3 0.3 0.6 0.6 0.9 0.8q1 0.8 2.1 1.2c1.4 0.7 3 0.8 4.4 0.6 1.4-0.2 2.6-0.8 3.6-1.4 1-0.7 1.7-1.6 2.3-2.4 0.5-0.8 0.8-1.5 1-2.2 0.4-1.3 0.3-2 0.4-2q0 0 0 0.1 0 0.2 0 0.4-0.1 0.3-0.1 0.7c-0.1 0.2-0.1 0.5-0.2 0.9-0.2 0.6-0.5 1.4-1 2.2-0.6 0.8-1.3 1.7-2.3 2.4-1 0.7-2.2 1.3-3.7 1.5-1.4 0.2-3 0.1-4.5-0.5q-1.1-0.5-2.1-1.3c-0.4-0.3-0.7-0.6-1-0.9-0.3-0.3-0.6-0.6-0.8-1-1-1.5-1.6-3.3-1.5-5.2 0.1-1.9 0.8-3.7 1.9-5 0.2-0.4 0.6-0.7 0.9-1 0.3-0.3 0.6-0.6 1-0.8q1-0.7 2.2-1.1c1.6-0.5 3.2-0.5 4.6-0.2 1.4 0.3 2.6 1 3.5 1.8 1 0.8 1.6 1.7 2.1 2.5 0.4 0.9 0.7 1.7 0.8 2.4 0.1 0.3 0.1 0.6 0.2 0.9q0 0.4 0 0.6 0 0.3 0 0.4 0 0.2 0 0.2z"/><path class="g" d="m838.9 278.2c0 0 0-0.3-0.1-0.8-0.1-0.5-0.4-1.2-1.1-1.8-0.3-0.3-0.8-0.5-1.3-0.6-0.5-0.1-1.1-0.1-1.7 0.1-0.5 0.1-1.1 0.5-1.5 1-0.4 0.5-0.6 1.1-0.6 1.8-0.1 0.7 0.1 1.4 0.5 1.9 0.3 0.5 0.9 0.9 1.4 1.2 0.6 0.2 1.1 0.2 1.7 0.2 0.5-0.1 0.9-0.3 1.3-0.6 0.8-0.5 1.1-1.2 1.3-1.7 0.1-0.4 0.1-0.7 0.1-0.7q0.1 0 0.1 0.2 0 0.2-0.1 0.6c-0.2 0.5-0.5 1.2-1.3 1.8-0.4 0.3-0.9 0.5-1.4 0.6-0.6 0-1.2 0-1.8-0.2-0.6-0.3-1.1-0.7-1.5-1.3-0.4-0.5-0.6-1.2-0.6-2 0-0.7 0.3-1.4 0.7-2 0.5-0.5 1.1-0.9 1.7-1.1 0.6-0.2 1.2-0.2 1.7 0 0.6 0.1 1 0.4 1.4 0.7 0.7 0.6 1 1.3 1.1 1.9q0.1 0.3 0.1 0.6 0 0.2-0.1 0.2z"/><path class="g" d="m837 311.9c-0.1 0 0.1-4.6 0.3-10.2 0.2-5.6 0.4-10.2 0.5-10.2 0 0-0.1 4.6-0.3 10.2-0.2 5.6-0.4 10.2-0.5 10.2z"/><path class="a" d="m836.7 276.2q-0.7 0.3-1.3 0v-12.3l1.3 0.1z"/><path fill-rule="evenodd" class="g" d="m836 276.4q-0.3 0-0.7-0.2v-12.4l1.4 0.1v12.3q-0.4 0.2-0.7 0.2zm-0.6-0.2q0.6 0.2 1.2 0v-12.2h-1.2z"/><path class="h" d="m831.1 257.9c1 1 2.3 1.6 3.4 2.5 1.2 0.9 2.2 2.1 2.2 3.6-0.1 1.5-1.3 2.7-2.6 3.4-1.9 0.9-4.1 1.1-6.1 0.5-2-0.6-3.7-2-4.7-3.8"/><path class="l" d="m823.3 264.1c0.1-0.1 0.8 1.2 2.7 2.4 0.9 0.6 2.1 1.1 3.6 1.2 1.4 0.2 3-0.1 4.5-0.9 1.4-0.8 2.3-2.2 2-3.5-0.3-1.3-1.4-2.3-2.2-2.9-1.9-1.3-3-2.4-2.8-2.5 0.1-0.1 1.2 0.7 3.2 1.9 1 0.6 2.3 1.5 2.8 3.3 0.2 0.8 0 1.8-0.5 2.6-0.5 0.9-1.2 1.5-2 2-1.7 0.9-3.5 1.2-5.1 1-1.6-0.2-3-0.8-4-1.5-1.9-1.5-2.3-3.1-2.2-3.1z"/><path class="h" d="m843.3 252.8c-2.2 2.7-4.4 5.6-6 8.8-0.4 0.9-0.9 2-0.9 3.1 0 1.1 0.5 2.3 1.5 2.8 0.8 0.4 1.9 0.4 2.7 0 0.9-0.4 1.6-1 2.3-1.7 2.8-2.5 5.3-5.2 7.5-8.2 0.5-0.7 1-1.5 1.3-2.4 0.3-0.8 0.3-1.8-0.2-2.6"/><path class="l" d="m851.5 252.6c0.1 0 0.5 0.4 0.6 1.5 0.1 1.1-0.6 2.6-1.7 4-1 1.5-2.3 3.2-3.9 4.9q-1.2 1.3-2.6 2.7c-1 0.8-2 1.9-3.4 2.4-0.8 0.3-1.6 0.3-2.3 0.1-0.8-0.3-1.5-0.9-1.8-1.5-0.7-1.4-0.5-2.9-0.1-4 0.9-2.3 2.2-4.1 3.2-5.6 2.2-2.8 3.7-4.4 3.8-4.3 0.2 0.1-1.2 1.8-3.2 4.8-0.9 1.5-2.1 3.3-2.8 5.4-0.4 1-0.5 2.2 0 3.2 0.5 1 1.7 1.3 2.8 0.9 1.2-0.4 2.1-1.3 3-2.2q1.4-1.3 2.7-2.5c1.6-1.7 2.9-3.3 4-4.7 1.2-1.4 1.8-2.6 1.9-3.6 0-0.9-0.3-1.4-0.2-1.5z"/><g style="display:none"><path class="g" d="m883 895.3c0 0.3-194.3 0.6-434 0.6-239.7 0-434-0.3-434-0.6 0-0.2 194.3-0.5 434-0.5 239.7 0 434 0.3 434 0.5z"/></g><path class="f" d="m128.3 619.9c19-29.1 18.3-71.7-4.4-98-7.1-8.2-16.9-15.3-27.7-14.3-11 0.9-19.9 10.3-23.2 20.9-3.4 10.5-2.2 21.9-0.3 32.8 2.8 15.2 7.4 30.8 18 42.1 10.5 11.3 24 23.9 37.6 16.5z"/><path class="f" d="m119.8 759.1c7.2-16.7 2-37.9-12.1-49.4-4.4-3.6-10.1-6.4-15.6-4.9-5.5 1.5-9.3 7.1-10 12.9-0.8 5.7 0.8 11.5 2.8 16.9 2.8 7.6 6.6 15.2 13.1 20.1 6.5 4.9 15.5 9.4 21.8 4.4z"/><path class="f" d="m165.7 749.1c-5.2-25.8 8.4-54.3 31.8-66.5 7.2-3.7 16.1-6 23.5-2.3 7.4 3.8 11 12.9 10.4 21.2-0.5 8.4-4.6 16.1-9 23.2-6.2 9.9-13.8 19.6-24.4 24.6-10.6 5-24.8 8.8-32.3-0.2z"/><path class="f" d="m162.4 679.3c-9.1-29.4 6.4-65.1 32.1-81.9 8-5.3 18.1-8.9 27.1-5.5 9.1 3.5 14.4 13.7 14.7 23.4 0.2 9.8-3.5 19.2-7.8 28-6.1 12.3-13.8 24.5-25.6 31.5-11.7 7.1-30.7 14.1-40.5 4.5z"/><path class="g" d="m144.1 823q0.1 0 0.3-1.4 0.3-1.6 0.6-4.1 0.2-1.3 0.5-2.9 0.3-1.7 0.6-3.5c0.5-2.6 1-5.4 1.8-8.5q0.6-2.4 1.2-4.9 0.7-2.6 1.5-5.3c1-3.6 2.5-7.4 3.8-11.4 3-8 6.8-16.5 11.4-25.2 4.7-8.6 9.7-16.5 14.7-23.4 2.6-3.3 4.9-6.6 7.4-9.5q1.9-2.1 3.6-4.2 1.8-1.9 3.4-3.7c2.1-2.4 4.2-4.4 6.1-6.1q1.3-1.4 2.5-2.5 1.2-1.1 2.3-2 1.8-1.7 3-2.8 1.1-1 1.1-1-0.1-0.1-1.2 0.8-1.3 1-3.3 2.6-1 0.9-2.3 1.9-1.2 1.2-2.6 2.5c-1.9 1.7-4.1 3.7-6.2 6q-1.7 1.8-3.6 3.7-1.7 2-3.5 4.2c-2.6 2.8-5 6.1-7.6 9.4-5.1 6.9-10.2 14.8-14.9 23.5-4.6 8.7-8.4 17.4-11.3 25.4-1.4 4-2.8 7.8-3.7 11.5q-0.8 2.8-1.5 5.3-0.6 2.6-1.1 5c-0.8 3.1-1.2 6-1.7 8.5q-0.3 1.9-0.5 3.6-0.2 1.6-0.3 3-0.3 2.5-0.4 4.1-0.1 1.4-0.1 1.4z"/><path class="g" d="m144.8 828.3q0 0 0-0.6 0-0.6-0.1-1.7-0.2-2.4-0.6-6.5-0.2-2.1-0.5-4.7c-0.1-1.7-0.2-3.6-0.3-5.6-0.1-4.1-0.5-8.7-0.4-13.8q0.1-3.8 0.1-8c0-2.7 0.3-5.6 0.4-8.6 0.2-6 1-12.3 1.7-19 1.9-13.3 4.7-27.9 9.1-42.8 4.4-14.8 10-28.6 15.7-40.8 3.1-6 5.8-11.7 8.9-16.8 1.5-2.6 2.9-5.2 4.4-7.5q2.2-3.5 4.3-6.7c2.7-4.4 5.5-8 7.8-11.3 1.2-1.7 2.3-3.2 3.3-4.6q1.6-2 3-3.7 2.5-3.3 4-5.2 0.7-0.8 1.1-1.3 0.3-0.5 0.3-0.5 0 0-0.4 0.4-0.5 0.5-1.1 1.3-1.6 1.8-4.3 5-1.4 1.6-3.1 3.6c-1 1.4-2.1 2.9-3.4 4.5-2.3 3.3-5.2 6.9-7.9 11.3q-2.1 3.2-4.4 6.7c-1.6 2.3-2.9 4.9-4.5 7.4-3.1 5.2-5.9 10.9-9 16.9-5.8 12.2-11.4 26-15.9 41-4.4 14.9-7.2 29.6-9 42.9-0.7 6.8-1.5 13.1-1.6 19.1-0.1 3-0.4 5.9-0.4 8.7q0 4.2 0.1 8c-0.1 5.1 0.3 9.8 0.5 13.8 0.2 2 0.3 3.9 0.4 5.6q0.3 2.6 0.6 4.8 0.5 4.1 0.8 6.5 0.2 1 0.3 1.7 0.1 0.5 0.1 0.5z"/><path class="g" d="m95.2 542.7q0 0 0.3 0.6 0.3 0.6 0.8 1.5 1.2 2.1 3.3 5.8c0.7 1.3 1.5 2.6 2.3 4.2q1.2 2.4 2.6 5.1 1.3 2.8 2.9 5.9c1 2.1 1.9 4.4 3 6.7 1 2.4 2.1 4.9 3.2 7.5q1.5 3.9 3.2 8.2 0.8 2.1 1.6 4.3 0.8 2.2 1.6 4.5 1.5 4.6 3.1 9.5c4.1 13 7.9 27.5 11.1 43 3.1 15.4 5.3 30.3 7 43.9 1.3 13.6 2.4 25.8 2.7 36.2 0.2 5.1 0.3 9.8 0.3 13.9 0.1 4.1 0.1 7.6 0 10.5q-0.1 4.2-0.1 6.7 0 1 0 1.7 0 0.6 0 0.6 0.1 0 0.1-0.6 0.1-0.7 0.1-1.7 0.1-2.4 0.4-6.7c0.1-2.9 0.2-6.4 0.2-10.5 0-4.1 0-8.8-0.2-14-0.1-10.3-1.1-22.6-2.4-36.3-1.6-13.6-3.7-28.5-6.9-44-3.2-15.4-7.1-30-11.2-43.1q-1.6-4.8-3.2-9.4-0.8-2.3-1.6-4.6-0.8-2.2-1.7-4.3-1.7-4.3-3.2-8.2c-1.1-2.6-2.3-5.1-3.3-7.4-1.1-2.4-2.1-4.7-3.1-6.8q-1.6-3.1-3-5.8-1.4-2.7-2.7-5.1c-0.8-1.5-1.7-2.9-2.4-4.1q-2.2-3.7-3.5-5.7-0.5-0.9-0.9-1.5-0.3-0.5-0.4-0.5z"/><path class="g" d="m101.7 721.4c-0.1 0 0.7 1.3 2 3.5 1.4 2.2 3.3 5.5 5.6 9.7 2.2 4.1 4.7 9.1 7.2 14.7 2.4 5.7 4.9 12.1 7 18.9 2.1 6.9 3.7 13.5 4.9 19.6 1.1 6.1 1.9 11.6 2.4 16.3 0.4 4.6 0.7 8.4 0.8 11 0.2 2.7 0.3 4.1 0.4 4.1 0 0 0.1-1.4 0.1-4.1 0-2.6-0.1-6.4-0.5-11.1-0.3-4.7-1-10.3-2.1-16.4-1.2-6.2-2.7-12.8-4.8-19.7-2.2-6.9-4.6-13.3-7.2-19-2.5-5.7-5.1-10.7-7.4-14.8-2.4-4.1-4.4-7.3-6-9.4-1.5-2.2-2.3-3.4-2.4-3.3z"/><path class="j" d="m181.5 809.9h-83.6l10.1 85.4h63.1z"/><path class="g" d="m178.5 886.1l-7.1 9.2h-63.4l-7.3-8.9z"/><path class="b" d="m101.2 835.1c0 0.3 17.3 0.6 38.7 0.6 21.4 0 38.8-0.3 38.8-0.6 0-0.4-17.4-0.7-38.8-0.7-21.4 0-38.7 0.3-38.7 0.7z"/><path class="b" d="m101.2 840.7c0 0.4 17.3 0.7 38.7 0.7 21.4 0 38.8-0.3 38.8-0.7 0-0.3-17.4-0.6-38.8-0.6-21.4 0-38.7 0.3-38.7 0.6z"/><path class="b" d="m102.2 846.2c0 0.4 16.7 0.7 37.4 0.7 20.7 0 37.4-0.3 37.4-0.7 0-0.3-16.7-0.6-37.4-0.6-20.7 0-37.4 0.3-37.4 0.6z"/><path class="g" d="m168.7 625.9q0 0 0.1 0.8 0 0.9 0.1 2.3c0.3 2.2 0.5 5 0.9 8.5 0.8 7.2 1.9 17.1 3.2 28.1q0 0.6 0.1 1.2v0.4h0.4c10.8 0.1 20.4 0.2 27.4 0.3 3.4 0 6.2 0 8.3 0q1.3-0.1 2.2-0.1 0.8 0 0.8-0.1 0 0-0.8-0.1-0.9 0-2.2-0.1c-2.1 0-4.9-0.1-8.3-0.2-7-0.2-16.6-0.4-27.4-0.6l0.4 0.4q0-0.6-0.1-1.2c-1.3-11-2.5-20.9-3.4-28-0.5-3.5-0.8-6.4-1.1-8.5q-0.2-1.4-0.4-2.3-0.1-0.8-0.2-0.8z"/><path class="g" d="m187.8 600.3q-0.1 0.1-0.1 0.9 0 0.9 0 2.4c0 2.2 0 5.2 0 8.8 0.2 7.4 0.4 17.7 0.6 29.1q0.1 0.7 0.1 1.3v0.4h0.4c11-0.8 21-0.9 28.1-0.6 3.6 0.1 6.5 0.2 8.5 0.3q1.4 0.1 2.3 0.1 0.8 0.1 0.8 0 0 0-0.8-0.1-0.8-0.1-2.3-0.3c-2-0.2-4.8-0.4-8.4-0.6-7.2-0.4-17.2-0.5-28.2 0.4l0.4 0.4q0-0.7 0-1.4c-0.3-11.3-0.6-21.6-0.9-29-0.1-3.6-0.2-6.6-0.3-8.8q-0.1-1.5-0.1-2.4-0.1-0.8-0.1-0.9z"/><path class="g" d="m210 591.6c-0.1 0-0.2 0.9-0.5 2.5q-0.5 2.6-1.3 6.7c-1 5.7-2.7 13.5-5.1 22.1l-0.3 0.9 0.9-0.4q0.5-0.3 1-0.5c8.2-4 16.3-5.8 22.3-6.5 2.9-0.4 5.4-0.5 7-0.6 1.7 0 2.6-0.1 2.6-0.1q0-0.1-0.6-0.1c-0.5-0.1-1.1-0.1-2-0.1-1.7-0.1-4.1 0-7.1 0.3-6 0.5-14.3 2.3-22.6 6.3q-0.5 0.3-1 0.5l0.6 0.5c2.4-8.6 4-16.5 4.9-22.2 0.5-2.8 0.8-5.2 1-6.8 0.2-1.6 0.3-2.4 0.2-2.5z"/><path class="g" d="m91.9 747.3c0 0.2 2.5-0.1 6.4-0.2 3.8-0.2 9.2-0.2 15.2 0.5q1.8 0.2 3.5 0.4h0.4v-0.3c0.9-5.1 1.7-9.6 2.2-12.8 0.5-3.2 0.8-5.1 0.7-5.1-0.1 0-0.6 1.9-1.2 5-0.7 3.2-1.6 7.7-2.5 12.7l0.5-0.3q-1.7-0.3-3.6-0.5c-5.9-0.6-11.4-0.5-15.3-0.2-1.9 0.1-3.5 0.3-4.6 0.5-1.1 0.2-1.7 0.3-1.7 0.3z"/><path class="g" d="m84 731.6c0.1 0.2 2.4-0.4 6.2-0.8 3.7-0.5 9-0.8 14.8-0.2q1.4 0.2 2.6 0.3l0.5 0.1v-0.4c0.5-5.2 0.9-9.8 1.2-13.1 0.3-3.4 0.4-5.4 0.3-5.4-0.1 0-0.4 2-0.8 5.3-0.5 3.3-1 7.9-1.5 13.1l0.4-0.4q-1.2-0.2-2.6-0.3c-5.9-0.6-11.2-0.2-15 0.4-1.9 0.3-3.4 0.6-4.5 0.9-1 0.3-1.6 0.5-1.6 0.5z"/><path class="g" d="m78.4 583q0 0 0.8 0.4 1 0.4 2.4 1.1c2.3 1 5.3 2.3 9.1 3.8 7.7 3.3 18.3 7.6 29.9 12.5q0.9 0.3 1.7 0.6l0.3 0.2 0.2-0.4c4.9-11.2 9.4-21.2 12.7-28.6 1.5-3.6 2.8-6.5 3.7-8.6q0.6-1.5 1-2.4 0.3-0.8 0.2-0.8 0 0-0.4 0.7-0.4 1-1.1 2.3c-1 2.2-2.3 5-4 8.6-3.3 7.3-7.8 17.3-12.9 28.5l0.6-0.3q-0.8-0.3-1.6-0.6c-11.7-4.8-22.3-9.1-30.1-12.2-3.8-1.5-6.9-2.7-9.1-3.6q-1.6-0.6-2.5-0.9-0.9-0.4-0.9-0.3z"/><path class="g" d="m71 546.9q0 0 0.8 0.5 0.8 0.6 2.2 1.4c2 1.3 4.8 3 8.1 5.1 7.1 4.3 16.6 10.1 27.3 16.6l0.4 0.3 0.2-0.5q0.2-0.6 0.5-1.3c4.4-12 8.4-22.8 11.4-30.8 1.4-3.9 2.5-7.1 3.4-9.4q0.5-1.5 0.8-2.5 0.3-0.9 0.3-1-0.1 0-0.4 0.9-0.4 1-1.1 2.5c-0.8 2.3-2.1 5.4-3.6 9.3-3 7.9-7.1 18.7-11.6 30.7q-0.3 0.7-0.5 1.3l0.6-0.2c-10.7-6.4-20.3-12.2-27.4-16.4-3.4-2-6.2-3.7-8.3-4.9q-1.3-0.7-2.2-1.2-0.8-0.5-0.9-0.4z"/><path class="g" d="m73.4 527.6c0 0 0.7 0.4 1.8 1 1.2 0.7 2.9 1.7 5 2.9 4.1 2.6 9.6 6.5 15.1 11.9l1.1 1-0.4-1.4q-0.5-2.3-0.9-4.7c-1.4-8.7-0.3-16.8 1.1-22.3 0.8-2.8 1.6-5 2.2-6.5 0.6-1.5 0.9-2.3 0.9-2.3-0.1 0-0.5 0.7-1.2 2.2-0.7 1.5-1.6 3.7-2.4 6.4-1.7 5.6-2.9 13.8-1.5 22.6 0.3 1.7 0.6 3.3 1 4.8l0.7-0.4c-5.5-5.4-11.2-9.3-15.4-11.7-2.2-1.3-3.9-2.2-5.1-2.7-1.2-0.6-1.9-0.9-2-0.8z"/><path class="g" d="m168.9 715.1c-0.1 0 0 0.7 0.3 2.1 0.3 1.4 0.7 3.4 1.2 5.9 0.9 5 1.9 12 2.3 19.8v0.4h0.3q0.9 0.1 1.9 0.1c8.3 0.5 15.8 0.9 21.3 1.2q3.9 0.1 6.4 0.2c1.5 0.1 2.4 0.1 2.4 0 0 0-0.9-0.1-2.4-0.3q-2.5-0.2-6.4-0.5c-5.4-0.4-12.9-0.9-21.2-1.4q-1-0.1-1.9-0.1l0.4 0.4c-0.4-7.9-1.5-14.9-2.5-19.9-0.6-2.5-1.1-4.5-1.5-5.8-0.3-1.4-0.6-2.1-0.6-2.1z"/><path class="g" d="m185.3 691.5c-0.1 0 0 0.8 0.1 2.2q0.3 2.3 0.7 5.9c0.6 5.1 1.5 12.1 2.6 19.9v0.3h0.4q1.3 0.1 2.6 0.2c8.5 0.6 16.2 1.5 21.7 2.2q4 0.5 6.6 0.9c1.5 0.2 2.4 0.3 2.4 0.2 0 0-0.8-0.2-2.4-0.5-1.5-0.4-3.7-0.8-6.5-1.2-5.5-0.9-13.2-1.8-21.7-2.4q-1.4-0.1-2.7-0.2l0.4 0.4c-1.1-7.9-2.1-14.8-2.8-19.8q-0.6-3.6-1-5.9c-0.2-1.4-0.4-2.2-0.4-2.2z"/><path class="g" d="m204.6 681.4c-0.1 0 0.4 2.3 1 6 0.6 3.7 1.2 8.9 1.4 14.8v0.5l0.4-0.1q0.7-0.1 1.4-0.2c6.2-0.7 11.8-0.9 15.8-0.9q2.9 0 4.8 0c1.2 0.1 1.8 0.1 1.8 0 0-0.1-0.6-0.2-1.7-0.3-1.2-0.1-2.8-0.2-4.9-0.3-4-0.2-9.7-0.1-15.9 0.7q-0.7 0.1-1.4 0.2l0.5 0.4c-0.1-5.9-0.9-11.2-1.6-14.9-0.4-1.9-0.8-3.4-1-4.4-0.3-1-0.5-1.5-0.6-1.5z"/><path class="g" d="m94.5 704.9c-0.2 0.1 1.6 3.9 3.7 8.5 2.1 4.6 3.8 8.4 4 8.4 0.2-0.1-1.1-4.1-3.2-8.7-2.2-4.7-4.3-8.3-4.5-8.2z"/><path class="g" d="m84 716.1c-0.1 0.2 4.4 0.3 9.5 1.9 5.1 1.5 8.7 4 8.9 3.8 0.1-0.2-3.4-3-8.7-4.6-5.3-1.7-9.8-1.3-9.7-1.1z"/></svg>